<?xml version="1.0" encoding="UTF-8" standalone="no"?>
<svg
   xmlns:dc="http://purl.org/dc/elements/1.1/"
   xmlns:cc="http://creativecommons.org/ns#"
   xmlns:rdf="http://www.w3.org/1999/02/22-rdf-syntax-ns#"
   xmlns:svg="http://www.w3.org/2000/svg"
   xmlns="http://www.w3.org/2000/svg"
   xmlns:xlink="http://www.w3.org/1999/xlink"
   xmlns:sodipodi="http://sodipodi.sourceforge.net/DTD/sodipodi-0.dtd"
   xmlns:inkscape="http://www.inkscape.org/namespaces/inkscape"
   viewBox="0 0 1058.635 631.93085"
   width="1058.635"
   height="631.93085"
   version="1.1"
   id="svg20"
   sodipodi:docname="invoice.svg"
   inkscape:version="0.92.3 (2405546, 2018-03-11)">
  <metadata
     id="metadata26">
    <rdf:RDF>
      <cc:Work
         rdf:about="">
        <dc:format>image/svg+xml</dc:format>
        <dc:type
           rdf:resource="http://purl.org/dc/dcmitype/StillImage" />
        <dc:title></dc:title>
      </cc:Work>
    </rdf:RDF>
  </metadata>
  <defs
     id="defs24">
    <linearGradient
       inkscape:collect="always"
       xlink:href="#a"
       id="linearGradient53"
       gradientUnits="userSpaceOnUse"
       x1="182.45599"
       y1="8"
       x2="182.45599"
       y2="512.89203" />
    <linearGradient
       inkscape:collect="always"
       xlink:href="#a"
       id="linearGradient55"
       x1="224.481"
       y1="8"
       x2="224.481"
       y2="512.89203" />
  </defs>
  <sodipodi:namedview
     pagecolor="#ffffff"
     bordercolor="#666666"
     borderopacity="1"
     objecttolerance="10"
     gridtolerance="10"
     guidetolerance="10"
     inkscape:pageopacity="0"
     inkscape:pageshadow="2"
     inkscape:window-width="1920"
     inkscape:window-height="1018"
     id="namedview22"
     showgrid="false"
     inkscape:zoom="1"
     inkscape:cx="530.79633"
     inkscape:cy="187.92357"
     inkscape:window-x="-8"
     inkscape:window-y="-8"
     inkscape:window-maximized="1"
     inkscape:current-layer="svg20" />
  <linearGradient
     id="a"
     gradientUnits="userSpaceOnUse"
     x1="182.45599"
     x2="182.45599"
     y1="8"
     y2="512.89203">
    <stop
       offset="0"
       stop-color="#00efd1"
       id="stop2" />
    <stop
       offset="1"
       stop-color="#00acea"
       id="stop4" />
  </linearGradient>
  <linearGradient
     id="b"
     x1="224.481"
     x2="224.481"
     xlink:href="#a"
     y1="8"
     y2="512.89203" />
  <linearGradient
     id="c"
     x1="256"
     x2="256"
     xlink:href="#a"
     y1="8"
     y2="512.89203" />
  <linearGradient
     id="d"
     x1="224.52901"
     x2="224.52901"
     xlink:href="#a"
     y1="8"
     y2="512.89203" />
  <g
     id="g51"
     transform="matrix(0.94168034,0,0,0.94168034,288.24732,-9.774969)">
    <path
       id="path10"
       d="m 138.33,319 h 88.253 a 10,10 0 0 0 0,-20 H 138.33 a 10,10 0 0 0 0,20 z"
       style="fill:url(#linearGradient53)"
       inkscape:connector-curvature="0" />
    <path
       id="path12"
       d="M 310.632,341 H 138.33 a 10,10 0 0 0 0,20 h 172.3 a 10,10 0 1 0 0,-20 z"
       style="fill:url(#linearGradient55)"
       inkscape:connector-curvature="0" />
    <path
       id="path14"
       d="M 310.632,383 H 138.33 a 10,10 0 0 0 0,20 h 172.3 a 10,10 0 1 0 0,-20 z"
       style="fill:url(#b)"
       inkscape:connector-curvature="0" />
    <path
       id="path16"
       d="M 400.461,21 H 174.577 A 41.41,41.41 0 0 0 133,62.278 V 82 H 111.539 A 41.773,41.773 0 0 0 70,123.74 v 347.336 a 15.255,15.255 0 0 0 25.618,11.187 l 31.786,-29.3 38.56,34.388 a 15.278,15.278 0 0 0 20.406,-0.028 l 38.111,-34.377 38.141,34.4 a 15.259,15.259 0 0 0 20.363,0.011 l 38.571,-34.4 31.722,29.241 A 15.284,15.284 0 0 0 379,471.076 V 396.1 l 5.639,-5.106 31.69,29.225 A 15.249,15.249 0 0 0 442,409.089 V 62.278 A 41.378,41.378 0 0 0 400.461,21 Z M 359,460.227 331.987,435.354 a 15.222,15.222 0 0 0 -20.536,-0.161 l -38.616,34.432 -38.1,-34.367 a 15.1,15.1 0 0 0 -20.5,0 l -38.1,34.367 -38.585,-34.412 a 15.228,15.228 0 0 0 -20.559,0.143 L 90,460.228 V 123.74 A 21.751,21.751 0 0 1 111.539,102 H 337.423 A 21.783,21.783 0 0 1 359,123.74 Z M 422,398.24 395.034,373.366 A 15.342,15.342 0 0 0 379,370.457 V 123.74 A 41.8,41.8 0 0 0 337.423,82 H 153 V 62.278 A 21.389,21.389 0 0 1 174.577,41 H 400.461 A 21.357,21.357 0 0 1 422,62.278 Z"
       style="fill:url(#c)"
       inkscape:connector-curvature="0" />
    <path
       id="path18"
       d="m 224.218,271 h 0.163 a 52.091,52.091 0 0 0 37.986,-16.615 c 20.685,-21.835 20.667,-57.2 0.019,-78.744 L 224.422,135.323 186.544,175.6 c -20.47,21.606 -20.484,56.966 -0.033,78.755 A 51.43,51.43 0 0 0 224.218,271 Z m -23.13,-81.681 23.347,-24.828 23.453,24.9 c 13.436,14.017 13.418,36.978 -0.031,51.173 A 32.184,32.184 0 0 1 224.279,250.887 31.737,31.737 0 0 1 201.1,240.607 C 187.759,226.4 187.745,203.4 201.088,189.319 Z"
       style="fill:url(#d)"
       inkscape:connector-curvature="0" />
  </g>
  <g
     aria-label="NÃO EXISTEM SERVIÇOS NÃO INCORPORADOS
NESTA MEDIÇÃO"
     style="font-style:normal;font-weight:normal;font-size:52.05447006px;line-height:1.25;font-family:sans-serif;letter-spacing:0px;word-spacing:0px;fill:#000000;fill-opacity:1;stroke:none;stroke-width:1.3013618"
     id="text30">
    <path
       d="m 27.640906,517.74984 h -4.528739 v 26.02723 c 0,1.82191 0.05205,3.59176 0.156163,5.46572 h -0.884926 c -0.780817,-1.76985 -1.717797,-3.74792 -2.44656,-5.20545 L 8.1725337,519.20736 c -0.4164358,-0.98903 -0.9890349,-1.45752 -2.0301243,-1.45752 h -4.320521 c -1.19725286,0 -1.821906499338,0.62465 -1.821906499338,1.8219 v 34.09568 H 4.5807753 v -26.91216 c 0,-1.56164 -0.052054,-3.17532 -0.2082179,-4.73696 h 0.8328715 c 0.4164358,1.45753 1.4054707,3.38354 2.0301243,4.73696 l 12.1286918,25.45463 c 0.416436,0.98904 0.989035,1.45753 2.030124,1.45753 h 4.476685 c 1.145198,0 1.769852,-0.62465 1.769852,-1.82191 z"
       style="font-style:normal;font-variant:normal;font-weight:normal;font-stretch:normal;font-family:'Exo 2';-inkscape-font-specification:'Exo 2, ';text-align:center;text-anchor:middle;stroke-width:1.3013618"
       id="path247" />
    <path
       d="m 42.220225,513.84575 c 0,-2.08218 0.520544,-3.01916 2.44656,-2.81094 2.550669,0.31233 4.320521,2.70683 7.860225,2.9671 2.706832,0.20822 4.476684,-1.92601 4.060248,-5.8301 H 54.50508 c 0,1.97807 -0.5726,2.863 -2.550669,2.60273 -2.915051,-0.31233 -4.528739,-2.60273 -7.756117,-2.863 -2.550669,-0.20822 -4.476684,1.76985 -4.060248,5.93421 z m 13.534162,28.5779 3.539704,11.24377 h 4.684902 L 52.474955,518.99914 c -0.208218,-0.78081 -0.884926,-1.2493 -1.717797,-1.2493 h -4.841066 c -0.780817,0 -1.457525,0.46849 -1.665743,1.2493 l -11.556092,34.66828 h 4.684902 l 3.591758,-11.24377 z M 54.50508,538.46751 H 42.220225 l 4.528738,-14.26292 c 0.260273,-0.93698 0.5726,-1.97807 0.884926,-2.91505 h 1.457526 c 0.208218,0.93698 0.572599,1.97807 0.884926,2.91505 z"
       style="font-style:normal;font-variant:normal;font-weight:normal;font-stretch:normal;font-family:'Exo 2';-inkscape-font-specification:'Exo 2, ';text-align:center;text-anchor:middle;stroke-width:1.3013618"
       id="path249" />
    <path
       d="m 81.68727,517.07313 c -10.462948,0 -14.21087,4.58079 -14.21087,18.6355 0,14.0547 3.747922,18.6355 14.21087,18.6355 10.462948,0 14.158816,-4.5808 14.158816,-18.6355 0,-14.05471 -3.695868,-18.6355 -14.158816,-18.6355 z m 0,4.1123 c 7.079408,0 9.369805,3.5397 9.369805,14.5232 0,10.98349 -2.290397,14.52319 -9.369805,14.52319 -7.079408,0 -9.369805,-3.5397 -9.369805,-14.52319 0,-10.9835 2.290397,-14.5232 9.369805,-14.5232 z"
       style="font-style:normal;font-variant:normal;font-weight:normal;font-stretch:normal;font-family:'Exo 2';-inkscape-font-specification:'Exo 2, ';text-align:center;text-anchor:middle;stroke-width:1.3013618"
       id="path251" />
    <path
       d="m 137.00165,549.86744 h -14.41908 c -2.13424,0 -3.12327,-1.04109 -3.12327,-3.48765 v -9.83829 h 15.51223 v -3.69587 H 119.4593 v -7.80817 c 0,-2.3945 0.98903,-3.43559 3.12327,-3.43559 h 14.41908 l 0.20822,-3.59176 c -4.78901,-0.31233 -10.25473,-0.31233 -15.40812,-0.31233 -4.21641,0 -6.87119,2.39451 -6.92325,6.24654 v 23.52862 c 0.0521,3.85203 2.70684,6.24653 6.92325,6.24653 5.15339,0 10.61911,0 15.40812,-0.31232 z"
       style="font-style:normal;font-variant:normal;font-weight:normal;font-stretch:normal;font-family:'Exo 2';-inkscape-font-specification:'Exo 2, ';text-align:center;text-anchor:middle;stroke-width:1.3013618"
       id="path253" />
    <path
       d="m 156.39439,536.80177 8.95337,16.86565 h 4.99723 l -10.15062,-18.58345 9.47391,-17.33413 h -4.94517 l -8.22461,15.51223 h -1.50958 l -8.22461,-15.51223 h -4.94517 l 9.42186,17.33413 -10.09857,18.58345 h 4.99723 l 8.95337,-16.86565 z"
       style="font-style:normal;font-variant:normal;font-weight:normal;font-stretch:normal;font-family:'Exo 2';-inkscape-font-specification:'Exo 2, ';text-align:center;text-anchor:middle;stroke-width:1.3013618"
       id="path255" />
    <path
       d="m 180.77296,553.66742 v -35.91758 h -4.58079 v 35.91758 z"
       style="font-style:normal;font-variant:normal;font-weight:normal;font-stretch:normal;font-family:'Exo 2';-inkscape-font-specification:'Exo 2, ';text-align:center;text-anchor:middle;stroke-width:1.3013618"
       id="path257" />
    <path
       d="m 199.81025,517.12518 c -8.01639,0 -11.6602,1.09315 -11.6602,9.47392 0,5.46571 1.87396,8.69309 7.07941,9.99445 l 7.44379,1.87396 c 3.12327,0.78082 4.52874,1.76986 4.52874,5.93421 0,4.94518 -1.7178,5.77805 -7.23558,5.77805 -2.9671,0.0521 -4.89312,-0.0521 -10.98349,-0.26027 l -0.31233,3.38354 c 4.89312,0.88492 8.79721,0.98903 11.13966,0.98903 8.38077,0 12.02458,-1.50958 12.02458,-9.78624 0,-5.56983 -1.71779,-8.74515 -7.23557,-10.09856 l -7.28762,-1.82191 c -3.17533,-0.78082 -4.52874,-1.92602 -4.52874,-5.88216 0,-5.30955 2.03012,-5.46572 7.23557,-5.46572 3.33149,0 7.13146,0.10411 10.15062,0.26028 l 0.31233,-3.33149 c -3.59176,-0.78082 -7.28763,-0.98903 -10.67117,-1.04109 z"
       style="font-style:normal;font-variant:normal;font-weight:normal;font-stretch:normal;font-family:'Exo 2';-inkscape-font-specification:'Exo 2, ';text-align:center;text-anchor:middle;stroke-width:1.3013618"
       id="path259" />
    <path
       d="m 243.46036,521.81008 v -4.06024 h -27.74503 v 4.06024 h 11.55609 v 31.85734 h 4.5808 v -31.85734 z"
       style="font-style:normal;font-variant:normal;font-weight:normal;font-stretch:normal;font-family:'Exo 2';-inkscape-font-specification:'Exo 2, ';text-align:center;text-anchor:middle;stroke-width:1.3013618"
       id="path261" />
    <path
       d="m 271.00125,549.86744 h -14.41909 c -2.13423,0 -3.12327,-1.04109 -3.12327,-3.48765 v -9.83829 h 15.51224 v -3.69587 h -15.51224 v -7.80817 c 0,-2.3945 0.98904,-3.43559 3.12327,-3.43559 h 14.41909 l 0.20822,-3.59176 c -4.78901,-0.31233 -10.25473,-0.31233 -15.40813,-0.31233 -4.21641,0 -6.87119,2.39451 -6.92324,6.24654 v 23.52862 c 0.0521,3.85203 2.70683,6.24653 6.92324,6.24653 5.1534,0 10.61912,0 15.40813,-0.31232 z"
       style="font-style:normal;font-variant:normal;font-weight:normal;font-stretch:normal;font-family:'Exo 2';-inkscape-font-specification:'Exo 2, ';text-align:center;text-anchor:middle;stroke-width:1.3013618"
       id="path263" />
    <path
       d="m 307.15552,517.74984 c -1.04109,0 -1.7178,0.52054 -1.97807,1.56163 l -6.71503,21.81082 c -0.52054,1.7178 -0.88492,3.27943 -1.35341,4.94518 h -0.93698 c -0.46849,-1.66575 -0.83288,-3.22738 -1.35342,-4.84107 l -6.71503,-21.91493 c -0.31232,-1.04109 -0.88492,-1.56163 -1.92601,-1.56163 h -5.20545 c -1.19725,0 -1.87396,0.6767 -1.92601,1.92601 l -1.40548,33.99157 h 4.5808 l 1.24931,-32.11761 h 1.04108 l 8.01639,26.49573 c 0.31233,0.98903 0.98904,1.56163 2.08218,1.56163 h 4.1123 c 1.04109,0 1.7178,-0.5726 1.97807,-1.56163 l 8.01639,-26.49573 h 1.09315 l 1.30136,32.11761 h 4.58079 l -1.50958,-33.99157 c 0,-1.24931 -0.67671,-1.92601 -1.87396,-1.92601 z"
       style="font-style:normal;font-variant:normal;font-weight:normal;font-stretch:normal;font-family:'Exo 2';-inkscape-font-specification:'Exo 2, ';text-align:center;text-anchor:middle;stroke-width:1.3013618"
       id="path265" />
    <path
       d="m 345.60345,517.12518 c -8.01639,0 -11.6602,1.09315 -11.6602,9.47392 0,5.46571 1.87396,8.69309 7.07941,9.99445 l 7.44378,1.87396 c 3.12327,0.78082 4.52874,1.76986 4.52874,5.93421 0,4.94518 -1.71779,5.77805 -7.23557,5.77805 -2.9671,0.0521 -4.89312,-0.0521 -10.98349,-0.26027 l -0.31233,3.38354 c 4.89312,0.88492 8.79721,0.98903 11.13966,0.98903 8.38077,0 12.02458,-1.50958 12.02458,-9.78624 0,-5.56983 -1.7178,-8.74515 -7.23557,-10.09856 l -7.28763,-1.82191 c -3.17532,-0.78082 -4.52873,-1.92602 -4.52873,-5.88216 0,-5.30955 2.03012,-5.46572 7.23557,-5.46572 3.33148,0 7.13146,0.10411 10.15062,0.26028 l 0.31233,-3.33149 c -3.59176,-0.78082 -7.28763,-0.98903 -10.67117,-1.04109 z"
       style="font-style:normal;font-variant:normal;font-weight:normal;font-stretch:normal;font-family:'Exo 2';-inkscape-font-specification:'Exo 2, ';text-align:center;text-anchor:middle;stroke-width:1.3013618"
       id="path267" />
    <path
       d="m 386.59877,549.86744 h -14.41909 c -2.13423,0 -3.12327,-1.04109 -3.12327,-3.48765 v -9.83829 h 15.51223 v -3.69587 h -15.51223 v -7.80817 c 0,-2.3945 0.98904,-3.43559 3.12327,-3.43559 h 14.41909 l 0.20822,-3.59176 c -4.78901,-0.31233 -10.25473,-0.31233 -15.40813,-0.31233 -4.21641,0 -6.87119,2.39451 -6.92324,6.24654 v 23.52862 c 0.0521,3.85203 2.70683,6.24653 6.92324,6.24653 5.1534,0 10.61912,0 15.40813,-0.31232 z"
       style="font-style:normal;font-variant:normal;font-weight:normal;font-stretch:normal;font-family:'Exo 2';-inkscape-font-specification:'Exo 2, ';text-align:center;text-anchor:middle;stroke-width:1.3013618"
       id="path269" />
    <path
       d="m 419.2654,553.66742 -3.48765,-11.34788 c -0.78081,-3.01915 -2.65477,-4.6849 -4.42463,-5.15339 v -0.26027 c 4.73696,-0.62465 6.61092,-3.43559 6.61092,-9.2657 0,-8.06844 -3.27943,-10.35884 -11.60814,-10.35884 -5.77805,0 -8.48488,0.0521 -12.38897,0.4685 v 35.91758 h 4.52874 v -15.04374 c 1.97807,0 4.58079,0.0521 7.91228,0.0521 2.39451,0 3.85203,1.04109 4.78901,3.74792 l 3.17532,11.24377 z m -20.76973,-18.94783 v -13.43005 c 2.03012,0 4.6849,-0.0521 7.75612,-0.0521 5.30955,0 7.0794,1.40548 7.0794,6.66298 0,5.30955 -1.76985,6.76708 -7.0794,6.81913 z"
       style="font-style:normal;font-variant:normal;font-weight:normal;font-stretch:normal;font-family:'Exo 2';-inkscape-font-specification:'Exo 2, ';text-align:center;text-anchor:middle;stroke-width:1.3013618"
       id="path271" />
    <path
       d="m 452.17845,517.74984 h -4.73696 l -8.43282,28.42174 c -0.41644,1.30136 -0.78082,2.65477 -1.09314,3.95614 h -1.40548 c -0.31232,-1.30137 -0.6767,-2.60273 -1.04108,-3.90409 l -8.48488,-28.47379 h -4.73696 l 10.87938,34.61622 c 0.20822,0.72876 0.88493,1.30136 1.76986,1.30136 h 4.63284 c 0.83288,0 1.50958,-0.5726 1.76986,-1.30136 z"
       style="font-style:normal;font-variant:normal;font-weight:normal;font-stretch:normal;font-family:'Exo 2';-inkscape-font-specification:'Exo 2, ';text-align:center;text-anchor:middle;stroke-width:1.3013618"
       id="path273" />
    <path
       d="m 462.19244,553.66742 v -35.91758 h -4.58079 v 35.91758 z"
       style="font-style:normal;font-variant:normal;font-weight:normal;font-stretch:normal;font-family:'Exo 2';-inkscape-font-specification:'Exo 2, ';text-align:center;text-anchor:middle;stroke-width:1.3013618"
       id="path275" />
    <path
       d="m 483.93656,517.12518 c -10.35884,0 -14.0547,4.89312 -14.0547,18.58345 0,13.69032 3.69586,18.58344 14.0547,18.58344 4.73696,0 7.5479,-0.36438 10.56706,-1.19725 l -0.52054,-3.43559 c -2.863,0.41643 -5.62189,0.57259 -10.04652,0.57259 -6.9753,0 -9.26569,-3.59175 -9.26569,-14.52319 0,-10.93144 2.29039,-14.5232 9.26569,-14.5232 4.16436,0 6.24654,0.15616 9.31775,0.46849 l 0.52055,-3.48765 c -2.96711,-0.72876 -5.30956,-1.04109 -9.8383,-1.04109 z m -3.01916,41.48741 c 2.49862,0.0521 3.12327,0.41644 3.07122,1.66575 -0.0521,2.13423 -1.97807,3.69586 -4.84107,3.59176 l -0.67671,2.34245 c 4.94518,0.6767 8.58899,-1.87396 8.6931,-6.29859 0.10411,-3.12327 -1.76985,-3.74793 -5.77805,-3.38354 z"
       style="font-style:normal;font-variant:normal;font-weight:normal;font-stretch:normal;font-family:'Exo 2';-inkscape-font-specification:'Exo 2, ';text-align:center;text-anchor:middle;stroke-width:1.3013618"
       id="path277" />
    <path
       d="m 513.17003,517.07313 c -10.46295,0 -14.21087,4.58079 -14.21087,18.6355 0,14.0547 3.74792,18.6355 14.21087,18.6355 10.46295,0 14.15881,-4.5808 14.15881,-18.6355 0,-14.05471 -3.69586,-18.6355 -14.15881,-18.6355 z m 0,4.1123 c 7.07941,0 9.3698,3.5397 9.3698,14.5232 0,10.98349 -2.29039,14.52319 -9.3698,14.52319 -7.07941,0 -9.36981,-3.5397 -9.36981,-14.52319 0,-10.9835 2.2904,-14.5232 9.36981,-14.5232 z"
       style="font-style:normal;font-variant:normal;font-weight:normal;font-stretch:normal;font-family:'Exo 2';-inkscape-font-specification:'Exo 2, ';text-align:center;text-anchor:middle;stroke-width:1.3013618"
       id="path279" />
    <path
       d="m 545.07781,517.12518 c -8.01638,0 -11.6602,1.09315 -11.6602,9.47392 0,5.46571 1.87396,8.69309 7.07941,9.99445 l 7.44379,1.87396 c 3.12327,0.78082 4.52874,1.76986 4.52874,5.93421 0,4.94518 -1.7178,5.77805 -7.23557,5.77805 -2.96711,0.0521 -4.89312,-0.0521 -10.9835,-0.26027 l -0.31232,3.38354 c 4.89312,0.88492 8.7972,0.98903 11.13965,0.98903 8.38077,0 12.02459,-1.50958 12.02459,-9.78624 0,-5.56983 -1.7178,-8.74515 -7.23557,-10.09856 l -7.28763,-1.82191 c -3.17532,-0.78082 -4.52874,-1.92602 -4.52874,-5.88216 0,-5.30955 2.03013,-5.46572 7.23557,-5.46572 3.33149,0 7.13146,0.10411 10.15062,0.26028 l 0.31233,-3.33149 c -3.59176,-0.78082 -7.28763,-0.98903 -10.67117,-1.04109 z"
       style="font-style:normal;font-variant:normal;font-weight:normal;font-stretch:normal;font-family:'Exo 2';-inkscape-font-specification:'Exo 2, ';text-align:center;text-anchor:middle;stroke-width:1.3013618"
       id="path281" />
    <path
       d="m 603.49351,517.74984 h -4.52874 v 26.02723 c 0,1.82191 0.0521,3.59176 0.15616,5.46572 H 598.236 c -0.78081,-1.76985 -1.71779,-3.74792 -2.44656,-5.20545 l -11.76431,-24.82998 c -0.41643,-0.98903 -0.98903,-1.45752 -2.03012,-1.45752 h -4.32052 c -1.19725,0 -1.82191,0.62465 -1.82191,1.8219 v 34.09568 h 4.5808 v -26.91216 c 0,-1.56164 -0.0521,-3.17532 -0.20822,-4.73696 h 0.83287 c 0.41643,1.45753 1.40547,3.38354 2.03012,4.73696 l 12.12869,25.45463 c 0.41644,0.98904 0.98904,1.45753 2.03013,1.45753 h 4.47668 c 1.1452,0 1.76986,-0.62465 1.76986,-1.82191 z"
       style="font-style:normal;font-variant:normal;font-weight:normal;font-stretch:normal;font-family:'Exo 2';-inkscape-font-specification:'Exo 2, ';text-align:center;text-anchor:middle;stroke-width:1.3013618"
       id="path283" />
    <path
       d="m 618.07281,513.84575 c 0,-2.08218 0.52054,-3.01916 2.44656,-2.81094 2.55067,0.31233 4.32052,2.70683 7.86022,2.9671 2.70684,0.20822 4.47669,-1.92601 4.06025,-5.8301 h -2.08218 c 0,1.97807 -0.57259,2.863 -2.55066,2.60273 -2.91505,-0.31233 -4.52874,-2.60273 -7.75612,-2.863 -2.55067,-0.20822 -4.47669,1.76985 -4.06025,5.93421 z m 13.53416,28.5779 3.53971,11.24377 h 4.6849 l -11.50404,-34.66828 c -0.20822,-0.78081 -0.88493,-1.2493 -1.7178,-1.2493 h -4.84106 c -0.78082,0 -1.45753,0.46849 -1.66575,1.2493 l -11.55609,34.66828 h 4.6849 l 3.59176,-11.24377 z m -1.24931,-3.95614 h -12.28485 l 4.52874,-14.26292 c 0.26027,-0.93698 0.5726,-1.97807 0.88492,-2.91505 h 1.45753 c 0.20822,0.93698 0.5726,1.97807 0.88493,2.91505 z"
       style="font-style:normal;font-variant:normal;font-weight:normal;font-stretch:normal;font-family:'Exo 2';-inkscape-font-specification:'Exo 2, ';text-align:center;text-anchor:middle;stroke-width:1.3013618"
       id="path285" />
    <path
       d="m 657.53987,517.07313 c -10.46295,0 -14.21087,4.58079 -14.21087,18.6355 0,14.0547 3.74792,18.6355 14.21087,18.6355 10.46295,0 14.15882,-4.5808 14.15882,-18.6355 0,-14.05471 -3.69587,-18.6355 -14.15882,-18.6355 z m 0,4.1123 c 7.07941,0 9.3698,3.5397 9.3698,14.5232 0,10.98349 -2.29039,14.52319 -9.3698,14.52319 -7.07941,0 -9.3698,-3.5397 -9.3698,-14.52319 0,-10.9835 2.29039,-14.5232 9.3698,-14.5232 z"
       style="font-style:normal;font-variant:normal;font-weight:normal;font-stretch:normal;font-family:'Exo 2';-inkscape-font-specification:'Exo 2, ';text-align:center;text-anchor:middle;stroke-width:1.3013618"
       id="path287" />
    <path
       d="m 695.62417,553.66742 v -35.91758 h -4.58079 v 35.91758 z"
       style="font-style:normal;font-variant:normal;font-weight:normal;font-stretch:normal;font-family:'Exo 2';-inkscape-font-specification:'Exo 2, ';text-align:center;text-anchor:middle;stroke-width:1.3013618"
       id="path289" />
    <path
       d="m 732.30796,517.74984 h -4.52874 v 26.02723 c 0,1.82191 0.0521,3.59176 0.15616,5.46572 h -0.88492 c -0.78082,-1.76985 -1.7178,-3.74792 -2.44656,-5.20545 l -11.76431,-24.82998 c -0.41644,-0.98903 -0.98904,-1.45752 -2.03013,-1.45752 h -4.32052 c -1.19725,0 -1.8219,0.62465 -1.8219,1.8219 v 34.09568 h 4.58079 v -26.91216 c 0,-1.56164 -0.0521,-3.17532 -0.20822,-4.73696 h 0.83287 c 0.41644,1.45753 1.40547,3.38354 2.03013,4.73696 l 12.12869,25.45463 c 0.41643,0.98904 0.98903,1.45753 2.03012,1.45753 h 4.47669 c 1.1452,0 1.76985,-0.62465 1.76985,-1.82191 z"
       style="font-style:normal;font-variant:normal;font-weight:normal;font-stretch:normal;font-family:'Exo 2';-inkscape-font-specification:'Exo 2, ';text-align:center;text-anchor:middle;stroke-width:1.3013618"
       id="path291" />
    <path
       d="m 754.12283,517.12518 c -10.35884,0 -14.10676,4.89312 -14.10676,18.58345 0,13.69032 3.74792,18.58344 14.10676,18.58344 4.68491,0 7.49585,-0.36438 10.51501,-1.19725 l -0.46849,-3.43559 c -2.91505,0.41643 -5.62189,0.57259 -10.04652,0.57259 -7.02735,0 -9.26569,-3.59175 -9.26569,-14.52319 0,-10.93144 2.23834,-14.5232 9.26569,-14.5232 4.16436,0 6.19449,0.15616 9.31775,0.46849 l 0.46849,-3.48765 c -2.9671,-0.72876 -5.2575,-1.04109 -9.78624,-1.04109 z"
       style="font-style:normal;font-variant:normal;font-weight:normal;font-stretch:normal;font-family:'Exo 2';-inkscape-font-specification:'Exo 2, ';text-align:center;text-anchor:middle;stroke-width:1.3013618"
       id="path293" />
    <path
       d="m 783.30427,517.07313 c -10.46294,0 -14.21087,4.58079 -14.21087,18.6355 0,14.0547 3.74793,18.6355 14.21087,18.6355 10.46295,0 14.15882,-4.5808 14.15882,-18.6355 0,-14.05471 -3.69587,-18.6355 -14.15882,-18.6355 z m 0,4.1123 c 7.07941,0 9.36981,3.5397 9.36981,14.5232 0,10.98349 -2.2904,14.52319 -9.36981,14.52319 -7.0794,0 -9.3698,-3.5397 -9.3698,-14.52319 0,-10.9835 2.2904,-14.5232 9.3698,-14.5232 z"
       style="font-style:normal;font-variant:normal;font-weight:normal;font-stretch:normal;font-family:'Exo 2';-inkscape-font-specification:'Exo 2, ';text-align:center;text-anchor:middle;stroke-width:1.3013618"
       id="path295" />
    <path
       d="m 830.51604,553.66742 -3.48764,-11.34788 c -0.78082,-3.01915 -2.65478,-4.6849 -4.42463,-5.15339 v -0.26027 c 4.73695,-0.62465 6.61091,-3.43559 6.61091,-9.2657 0,-8.06844 -3.27943,-10.35884 -11.60814,-10.35884 -5.77805,0 -8.48488,0.0521 -12.38897,0.4685 v 35.91758 h 4.52874 v -15.04374 c 1.97807,0 4.58079,0.0521 7.91228,0.0521 2.39451,0 3.85203,1.04109 4.78901,3.74792 l 3.17532,11.24377 z m -20.76973,-18.94783 v -13.43005 c 2.03013,0 4.6849,-0.0521 7.75612,-0.0521 5.30955,0 7.07941,1.40548 7.07941,6.66298 0,5.30955 -1.76986,6.76708 -7.07941,6.81913 z"
       style="font-style:normal;font-variant:normal;font-weight:normal;font-stretch:normal;font-family:'Exo 2';-inkscape-font-specification:'Exo 2, ';text-align:center;text-anchor:middle;stroke-width:1.3013618"
       id="path297" />
    <path
       d="m 849.68186,517.28134 c -5.77804,0 -8.43282,0.0521 -12.33691,0.4685 v 35.91758 h 4.5808 v -14.31498 c 2.23834,0.20822 5.15339,0.41644 8.27666,0.41644 8.12049,0 11.03554,-2.39451 11.03554,-11.24377 0,-8.79721 -2.91505,-11.24377 -11.55609,-11.24377 z m -7.75611,18.5314 v -14.5232 c 2.03012,-0.0521 4.6849,-0.0521 7.70406,-0.0521 5.20544,0 6.9753,1.50958 6.9753,7.28763 0,5.77805 -1.76986,7.23557 -6.9753,7.28763 z"
       style="font-style:normal;font-variant:normal;font-weight:normal;font-stretch:normal;font-family:'Exo 2';-inkscape-font-specification:'Exo 2, ';text-align:center;text-anchor:middle;stroke-width:1.3013618"
       id="path299" />
    <path
       d="m 880.90639,517.07313 c -10.46295,0 -14.21087,4.58079 -14.21087,18.6355 0,14.0547 3.74792,18.6355 14.21087,18.6355 10.46294,0 14.15881,-4.5808 14.15881,-18.6355 0,-14.05471 -3.69587,-18.6355 -14.15881,-18.6355 z m 0,4.1123 c 7.0794,0 9.3698,3.5397 9.3698,14.5232 0,10.98349 -2.2904,14.52319 -9.3698,14.52319 -7.07941,0 -9.36981,-3.5397 -9.36981,-14.52319 0,-10.9835 2.2904,-14.5232 9.36981,-14.5232 z"
       style="font-style:normal;font-variant:normal;font-weight:normal;font-stretch:normal;font-family:'Exo 2';-inkscape-font-specification:'Exo 2, ';text-align:center;text-anchor:middle;stroke-width:1.3013618"
       id="path301" />
    <path
       d="m 928.11816,553.66742 -3.48765,-11.34788 c -0.78082,-3.01915 -2.65478,-4.6849 -4.42463,-5.15339 v -0.26027 c 4.73695,-0.62465 6.61091,-3.43559 6.61091,-9.2657 0,-8.06844 -3.27943,-10.35884 -11.60814,-10.35884 -5.77805,0 -8.48488,0.0521 -12.38897,0.4685 v 35.91758 h 4.52874 v -15.04374 c 1.97807,0 4.5808,0.0521 7.91228,0.0521 2.39451,0 3.85203,1.04109 4.78901,3.74792 l 3.17533,11.24377 z m -20.76974,-18.94783 v -13.43005 c 2.03013,0 4.68491,-0.0521 7.75612,-0.0521 5.30955,0 7.07941,1.40548 7.07941,6.66298 0,5.30955 -1.76986,6.76708 -7.07941,6.81913 z"
       style="font-style:normal;font-variant:normal;font-weight:normal;font-stretch:normal;font-family:'Exo 2';-inkscape-font-specification:'Exo 2, ';text-align:center;text-anchor:middle;stroke-width:1.3013618"
       id="path303" />
    <path
       d="m 953.999,542.42365 3.5397,11.24377 h 4.73696 l -11.55609,-34.66828 c -0.20822,-0.78081 -0.88493,-1.2493 -1.7178,-1.2493 h -4.78901 c -0.83287,0 -1.50958,0.46849 -1.7178,1.2493 l -11.55609,34.66828 h 4.73696 l 3.5397,-11.24377 z m -1.24931,-3.95614 h -12.28485 l 4.52874,-14.26292 c 0.31232,-0.93698 0.62465,-1.97807 0.88492,-2.91505 h 1.45753 c 0.26027,0.93698 0.5726,1.97807 0.88492,2.91505 z"
       style="font-style:normal;font-variant:normal;font-weight:normal;font-stretch:normal;font-family:'Exo 2';-inkscape-font-specification:'Exo 2, ';text-align:center;text-anchor:middle;stroke-width:1.3013618"
       id="path305" />
    <path
       d="m 980.08315,517.28134 c -4.94517,0 -9.05748,0.20822 -12.8054,0.4685 v 35.91758 c 3.74792,0.26027 7.86023,0.46849 12.8054,0.46849 10.30679,0 14.00265,-4.52874 14.00265,-18.42728 0,-13.89855 -3.69586,-18.42729 -14.00265,-18.42729 z m 0,32.84638 c -3.12327,0 -5.88215,-0.0521 -8.2246,-0.10411 v -28.68202 c 2.44656,-0.0521 5.04928,-0.10411 8.2246,-0.10411 6.87119,0 9.21364,3.59176 9.21364,14.47115 0,10.87938 -2.34245,14.41909 -9.21364,14.41909 z"
       style="font-style:normal;font-variant:normal;font-weight:normal;font-stretch:normal;font-family:'Exo 2';-inkscape-font-specification:'Exo 2, ';text-align:center;text-anchor:middle;stroke-width:1.3013618"
       id="path307" />
    <path
       d="m 1014.7027,517.07313 c -10.463,0 -14.2109,4.58079 -14.2109,18.6355 0,14.0547 3.7479,18.6355 14.2109,18.6355 10.4629,0 14.1588,-4.5808 14.1588,-18.6355 0,-14.05471 -3.6959,-18.6355 -14.1588,-18.6355 z m 0,4.1123 c 7.0794,0 9.3698,3.5397 9.3698,14.5232 0,10.98349 -2.2904,14.52319 -9.3698,14.52319 -7.0795,0 -9.3699,-3.5397 -9.3699,-14.52319 0,-10.9835 2.2904,-14.5232 9.3699,-14.5232 z"
       style="font-style:normal;font-variant:normal;font-weight:normal;font-stretch:normal;font-family:'Exo 2';-inkscape-font-specification:'Exo 2, ';text-align:center;text-anchor:middle;stroke-width:1.3013618"
       id="path309" />
    <path
       d="m 1046.6104,517.12518 c -8.0164,0 -11.6602,1.09315 -11.6602,9.47392 0,5.46571 1.874,8.69309 7.0794,9.99445 l 7.4438,1.87396 c 3.1233,0.78082 4.5287,1.76986 4.5287,5.93421 0,4.94518 -1.7178,5.77805 -7.2355,5.77805 -2.9671,0.0521 -4.8931,-0.0521 -10.9835,-0.26027 l -0.3123,3.38354 c 4.8931,0.88492 8.7972,0.98903 11.1396,0.98903 8.3808,0 12.0246,-1.50958 12.0246,-9.78624 0,-5.56983 -1.7178,-8.74515 -7.2356,-10.09856 l -7.2876,-1.82191 c -3.1753,-0.78082 -4.5287,-1.92602 -4.5287,-5.88216 0,-5.30955 2.0301,-5.46572 7.2355,-5.46572 3.3315,0 7.1315,0.10411 10.1506,0.26028 l 0.3124,-3.33149 c -3.5918,-0.78082 -7.2877,-0.98903 -10.6712,-1.04109 z"
       style="font-style:normal;font-variant:normal;font-weight:normal;font-stretch:normal;font-family:'Exo 2';-inkscape-font-specification:'Exo 2, ';text-align:center;text-anchor:middle;stroke-width:1.3013618"
       id="path311" />
    <path
       d="m 368.28251,583.36011 h -4.52874 v 26.02724 c 0,1.8219 0.0521,3.59175 0.15617,5.46571 h -0.88493 c -0.78082,-1.76985 -1.7178,-3.74792 -2.44656,-5.20544 l -11.76431,-24.82998 c -0.41644,-0.98904 -0.98904,-1.45753 -2.03013,-1.45753 h -4.32052 c -1.19725,0 -1.8219,0.62465 -1.8219,1.82191 v 34.09567 h 4.58079 v -26.91216 c 0,-1.56163 -0.0521,-3.17532 -0.20822,-4.73695 h 0.83287 c 0.41644,1.45752 1.40547,3.38354 2.03013,4.73695 l 12.12869,25.45464 c 0.41644,0.98903 0.98904,1.45752 2.03012,1.45752 h 4.47669 c 1.1452,0 1.76985,-0.62465 1.76985,-1.8219 z"
       style="font-style:normal;font-variant:normal;font-weight:normal;font-stretch:normal;font-family:'Exo 2';-inkscape-font-specification:'Exo 2, ';text-align:center;text-anchor:middle;stroke-width:1.3013618"
       id="path313" />
    <path
       d="m 399.15488,615.47772 h -14.41909 c -2.13423,0 -3.12327,-1.04109 -3.12327,-3.48765 v -9.8383 h 15.51223 v -3.69586 h -15.51223 v -7.80817 c 0,-2.39451 0.98904,-3.4356 3.12327,-3.4356 h 14.41909 l 0.20822,-3.59176 c -4.78901,-0.31232 -10.25473,-0.31232 -15.40813,-0.31232 -4.21641,0 -6.87119,2.3945 -6.92324,6.24653 v 23.52862 c 0.0521,3.85203 2.70683,6.24654 6.92324,6.24654 5.1534,0 10.61912,0 15.40813,-0.31233 z"
       style="font-style:normal;font-variant:normal;font-weight:normal;font-stretch:normal;font-family:'Exo 2';-inkscape-font-specification:'Exo 2, ';text-align:center;text-anchor:middle;stroke-width:1.3013618"
       id="path315" />
    <path
       d="m 416.51748,582.73546 c -8.01638,0 -11.6602,1.09314 -11.6602,9.47391 0,5.46572 1.87396,8.6931 7.07941,9.99446 l 7.44379,1.87396 c 3.12327,0.78082 4.52874,1.76985 4.52874,5.93421 0,4.94517 -1.7178,5.77805 -7.23557,5.77805 -2.96711,0.0521 -4.89312,-0.0521 -10.9835,-0.26028 l -0.31232,3.38354 c 4.89312,0.88493 8.7972,0.98904 11.13965,0.98904 8.38077,0 12.02459,-1.50958 12.02459,-9.78624 0,-5.56983 -1.7178,-8.74515 -7.23557,-10.09857 l -7.28763,-1.82191 c -3.17532,-0.78081 -4.52874,-1.92601 -4.52874,-5.88215 0,-5.30956 2.03013,-5.46572 7.23557,-5.46572 3.33149,0 7.13146,0.10411 10.15062,0.26027 l 0.31233,-3.33148 c -3.59176,-0.78082 -7.28762,-0.98904 -10.67117,-1.04109 z"
       style="font-style:normal;font-variant:normal;font-weight:normal;font-stretch:normal;font-family:'Exo 2';-inkscape-font-specification:'Exo 2, ';text-align:center;text-anchor:middle;stroke-width:1.3013618"
       id="path317" />
    <path
       d="m 460.1676,587.42036 v -4.06025 h -27.74503 v 4.06025 h 11.55609 v 31.85733 h 4.58079 v -31.85733 z"
       style="font-style:normal;font-variant:normal;font-weight:normal;font-stretch:normal;font-family:'Exo 2';-inkscape-font-specification:'Exo 2, ';text-align:center;text-anchor:middle;stroke-width:1.3013618"
       id="path319" />
    <path
       d="m 481.89952,608.03393 3.53971,11.24376 h 4.73696 l -11.5561,-34.66827 c -0.20821,-0.78082 -0.88492,-1.24931 -1.71779,-1.24931 h -4.78902 c -0.83287,0 -1.50958,0.46849 -1.71779,1.24931 l -11.5561,34.66827 h 4.73696 l 3.53971,-11.24376 z m -1.2493,-3.95614 h -12.28486 l 4.52874,-14.26293 c 0.31233,-0.93698 0.62465,-1.97807 0.88493,-2.91505 h 1.45752 c 0.26027,0.93698 0.5726,1.97807 0.88493,2.91505 z"
       style="font-style:normal;font-variant:normal;font-weight:normal;font-stretch:normal;font-family:'Exo 2';-inkscape-font-specification:'Exo 2, ';text-align:center;text-anchor:middle;stroke-width:1.3013618"
       id="path321" />
    <path
       d="m 534.33465,583.36011 c -1.04109,0 -1.7178,0.52055 -1.97807,1.56163 l -6.71503,21.81083 c -0.52055,1.7178 -0.88493,3.27943 -1.35342,4.94517 h -0.93698 c -0.46849,-1.66574 -0.83287,-3.22737 -1.35341,-4.84106 l -6.71503,-21.91494 c -0.31233,-1.04108 -0.88493,-1.56163 -1.92602,-1.56163 h -5.20544 c -1.19726,0 -1.87396,0.67671 -1.92602,1.92602 l -1.40547,33.99156 h 4.58079 l 1.24931,-32.1176 h 1.04109 l 8.01639,26.49572 c 0.31233,0.98904 0.98903,1.56164 2.08218,1.56164 h 4.1123 c 1.04109,0 1.7178,-0.5726 1.97807,-1.56164 l 8.01639,-26.49572 h 1.09314 l 1.30137,32.1176 h 4.58079 L 541.362,585.28613 c 0,-1.24931 -0.67671,-1.92602 -1.87396,-1.92602 z"
       style="font-style:normal;font-variant:normal;font-weight:normal;font-stretch:normal;font-family:'Exo 2';-inkscape-font-specification:'Exo 2, ';text-align:center;text-anchor:middle;stroke-width:1.3013618"
       id="path323" />
    <path
       d="m 573.00867,615.47772 h -14.41909 c -2.13423,0 -3.12327,-1.04109 -3.12327,-3.48765 v -9.8383 h 15.51224 v -3.69586 h -15.51224 v -7.80817 c 0,-2.39451 0.98904,-3.4356 3.12327,-3.4356 h 14.41909 l 0.20822,-3.59176 c -4.78901,-0.31232 -10.25473,-0.31232 -15.40813,-0.31232 -4.21641,0 -6.87119,2.3945 -6.92324,6.24653 v 23.52862 c 0.0521,3.85203 2.70683,6.24654 6.92324,6.24654 5.1534,0 10.61912,0 15.40813,-0.31233 z"
       style="font-style:normal;font-variant:normal;font-weight:normal;font-stretch:normal;font-family:'Exo 2';-inkscape-font-specification:'Exo 2, ';text-align:center;text-anchor:middle;stroke-width:1.3013618"
       id="path325" />
    <path
       d="m 593.18222,582.89162 c -4.94518,0 -9.05748,0.20822 -12.8054,0.46849 v 35.91758 c 3.74792,0.26028 7.86022,0.4685 12.8054,0.4685 10.30678,0 14.00265,-4.52874 14.00265,-18.42729 0,-13.89854 -3.69587,-18.42728 -14.00265,-18.42728 z m 0,32.84637 c -3.12327,0 -5.88216,-0.0521 -8.22461,-0.10411 v -28.68201 c 2.44656,-0.0521 5.04928,-0.10411 8.22461,-0.10411 6.87119,0 9.21364,3.59176 9.21364,14.47114 0,10.87939 -2.34245,14.41909 -9.21364,14.41909 z"
       style="font-style:normal;font-variant:normal;font-weight:normal;font-stretch:normal;font-family:'Exo 2';-inkscape-font-specification:'Exo 2, ';text-align:center;text-anchor:middle;stroke-width:1.3013618"
       id="path327" />
    <path
       d="m 619.52502,619.27769 v -35.91758 h -4.58079 v 35.91758 z"
       style="font-style:normal;font-variant:normal;font-weight:normal;font-stretch:normal;font-family:'Exo 2';-inkscape-font-specification:'Exo 2, ';text-align:center;text-anchor:middle;stroke-width:1.3013618"
       id="path329" />
    <path
       d="m 641.26918,582.73546 c -10.35884,0 -14.05471,4.89312 -14.05471,18.58344 0,13.69033 3.69587,18.58345 14.05471,18.58345 4.73695,0 7.5479,-0.36438 10.56706,-1.19725 l -0.52055,-3.4356 c -2.863,0.41644 -5.62188,0.5726 -10.04651,0.5726 -6.9753,0 -9.2657,-3.59176 -9.2657,-14.5232 0,-10.93144 2.2904,-14.52319 9.2657,-14.52319 4.16436,0 6.24653,0.15616 9.31775,0.46849 l 0.52054,-3.48765 c -2.9671,-0.72877 -5.30955,-1.04109 -9.83829,-1.04109 z m -3.01916,41.48741 c 2.49861,0.0521 3.12327,0.41644 3.07121,1.66574 -0.0521,2.13424 -1.97807,3.69587 -4.84106,3.59176 l -0.67671,2.34245 c 4.94517,0.67671 8.58899,-1.87396 8.6931,-6.29859 0.1041,-3.12327 -1.76986,-3.74792 -5.77805,-3.38354 z"
       style="font-style:normal;font-variant:normal;font-weight:normal;font-stretch:normal;font-family:'Exo 2';-inkscape-font-specification:'Exo 2, ';text-align:center;text-anchor:middle;stroke-width:1.3013618"
       id="path331" />
    <path
       d="m 663.77298,579.45603 c 0,-2.08218 0.52054,-3.01916 2.44656,-2.81095 2.55067,0.31233 4.32052,2.70684 7.86022,2.96711 2.70684,0.20822 4.47669,-1.92602 4.06025,-5.8301 h -2.08218 c 0,1.97807 -0.5726,2.86299 -2.55067,2.60272 -2.91505,-0.31233 -4.52873,-2.60272 -7.75611,-2.86299 -2.55067,-0.20822 -4.47669,1.76985 -4.06025,5.93421 z m 13.53416,28.5779 3.5397,11.24376 h 4.68491 l -11.50404,-34.66827 c -0.20822,-0.78082 -0.88493,-1.24931 -1.7178,-1.24931 h -4.84106 c -0.78082,0 -1.45753,0.46849 -1.66575,1.24931 l -11.55609,34.66827 h 4.6849 l 3.59176,-11.24376 z m -1.24931,-3.95614 h -12.28485 l 4.52874,-14.26293 c 0.26027,-0.93698 0.5726,-1.97807 0.88492,-2.91505 h 1.45753 c 0.20822,0.93698 0.5726,1.97807 0.88492,2.91505 z"
       style="font-style:normal;font-variant:normal;font-weight:normal;font-stretch:normal;font-family:'Exo 2';-inkscape-font-specification:'Exo 2, ';text-align:center;text-anchor:middle;stroke-width:1.3013618"
       id="path333" />
    <path
       d="m 703.24001,582.6834 c -10.46295,0 -14.21087,4.5808 -14.21087,18.6355 0,14.05471 3.74792,18.6355 14.21087,18.6355 10.46295,0 14.15881,-4.58079 14.15881,-18.6355 0,-14.0547 -3.69586,-18.6355 -14.15881,-18.6355 z m 0,4.11231 c 7.07941,0 9.3698,3.5397 9.3698,14.52319 0,10.9835 -2.29039,14.5232 -9.3698,14.5232 -7.07941,0 -9.36981,-3.5397 -9.36981,-14.5232 0,-10.98349 2.2904,-14.52319 9.36981,-14.52319 z"
       style="font-style:normal;font-variant:normal;font-weight:normal;font-stretch:normal;font-family:'Exo 2';-inkscape-font-specification:'Exo 2, ';text-align:center;text-anchor:middle;stroke-width:1.3013618"
       id="path335" />
  </g>
  <flowRoot
     xml:space="preserve"
     id="flowRoot34"
     style="font-style:normal;font-weight:normal;font-size:40px;line-height:1.25;font-family:sans-serif;letter-spacing:0px;word-spacing:0px;fill:#000000;fill-opacity:1;stroke:none"
     transform="translate(274.79633,-20.999662)"><flowRegion
       id="flowRegion36"><rect
         id="rect38"
         width="412.2034"
         height="71.593224"
         x="-392.67798"
         y="629.15253" /></flowRegion><flowPara
       id="flowPara40"></flowPara></flowRoot></svg>
