<?xml version="1.0" encoding="UTF-8" standalone="no"?>
<!-- Created with Inkscape (http://www.inkscape.org/) -->

<svg
   xmlns:dc="http://purl.org/dc/elements/1.1/"
   xmlns:cc="http://creativecommons.org/ns#"
   xmlns:rdf="http://www.w3.org/1999/02/22-rdf-syntax-ns#"
   xmlns:svg="http://www.w3.org/2000/svg"
   xmlns="http://www.w3.org/2000/svg"
   xmlns:sodipodi="http://sodipodi.sourceforge.net/DTD/sodipodi-0.dtd"
   xmlns:inkscape="http://www.inkscape.org/namespaces/inkscape"
   width="329.40759mm"
   height="115.29426mm"
   viewBox="0 0 329.40759 115.29426"
   version="1.1"
   id="svg5294"
   sodipodi:docname="logo_metrus.svg"
   inkscape:version="0.92.3 (2405546, 2018-03-11)">
  <defs
     id="defs5288" />
  <sodipodi:namedview
     id="base"
     pagecolor="#ffffff"
     bordercolor="#666666"
     borderopacity="1.0"
     inkscape:pageopacity="0.0"
     inkscape:pageshadow="2"
     inkscape:zoom="0.35"
     inkscape:cx="332.36039"
     inkscape:cy="-324.47142"
     inkscape:document-units="mm"
     inkscape:current-layer="text98-7"
     showgrid="false"
     inkscape:window-width="1920"
     inkscape:window-height="1018"
     inkscape:window-x="-8"
     inkscape:window-y="-8"
     inkscape:window-maximized="1" />
  <metadata
     id="metadata5291">
    <rdf:RDF>
      <cc:Work
         rdf:about="">
        <dc:format>image/svg+xml</dc:format>
        <dc:type
           rdf:resource="http://purl.org/dc/dcmitype/StillImage" />
      </cc:Work>
    </rdf:RDF>
  </metadata>
  <g
     inkscape:label="Camada 1"
     inkscape:groupmode="layer"
     id="layer1"
     transform="translate(121.5769,52.310656)">
    <g
       id="g5321">
      <g
         transform="matrix(0.89175979,0,0,0.89175979,145.93468,-225.08265)"
         id="g5313">
        <path
           style="fill:#2fe69c;fill-opacity:0.59607843;stroke-width:0.53453904"
           d="m -299.95612,236.92127 0.008,-21.51904 18.47841,-10.82973 18.47841,-10.82975 18.75579,10.84499 18.75581,10.845 0.0159,11.80893 c 0.009,6.49492 0.0156,16.1143 0.0153,21.37638 l -5.3e-4,9.56744 -18.61401,10.90383 -18.61401,10.90379 -8.93981,-5.17993 c -4.9169,-2.84895 -13.30665,-7.69834 -18.64389,-10.7764 l -9.70408,-5.59647 z"
           id="path3728"
           inkscape:connector-curvature="0" />
        <path
           inkscape:connector-curvature="0"
           id="path4542"
           d="m -299.97289,279.95935 0.008,-21.51904 18.47841,-10.82971 18.4784,-10.82975 18.7558,10.84499 18.75581,10.84498 0.0159,11.80894 c 0.009,6.49491 0.0156,16.11431 0.0153,21.3764 l -5.3e-4,9.56744 -18.61401,10.90379 -18.61401,10.90383 -8.93981,-5.17996 c -4.9169,-2.84896 -13.30665,-7.69832 -18.6439,-10.7764 l -9.70413,-5.59644 z"
           style="fill:#2ee6e6;fill-opacity:0.52156863;stroke-width:0.53453904" />
        <path
           style="fill:#2fc4e6;fill-opacity:0.59607843;stroke-width:0.53453904"
           d="m -262.74487,258.15173 0.008,-21.51903 18.47841,-10.82973 18.4784,-10.82974 18.7558,10.84498 18.7558,10.845 0.0159,11.80893 c 0.009,6.49491 0.0156,16.11431 0.0153,21.3764 l -5.3e-4,9.56744 -18.614,10.90379 -18.61401,10.90383 -8.93982,-5.17996 c -4.9169,-2.84896 -13.30666,-7.69832 -18.64389,-10.7764 l -9.70408,-5.59644 z"
           id="path4544"
           inkscape:connector-curvature="0" />
      </g>
      <g
         aria-label="FATURÃO"
         style="font-style:normal;font-variant:normal;font-weight:bold;font-stretch:normal;font-size:56.93497086px;line-height:1.25;font-family:'Exo 2';-inkscape-font-specification:'Exo 2 Bold';letter-spacing:0px;word-spacing:0px;fill:#000000;fill-opacity:1;stroke:none;stroke-width:1.4233743"
         id="text98-7">
        <path
           d="m 18.117132,-14.306092 c -1.935789,0 -3.074488,0.967895 -3.529968,2.789814 L 9.8615613,8.0693519 C 9.4630165,9.9482059 9.1783416,11.770125 8.8367318,13.592044 H 8.0965772 C 7.8119023,11.770125 7.5272275,9.9482059 7.0717477,8.0693519 L 2.2892102,-11.516278 c -0.3985448,-1.821919 -1.53724426,-2.789814 -3.4160983,-2.789814 h -8.3694407 c -2.1065942,0 -3.1314232,1.1387 -3.2452932,3.245294 l -1.423374,36.039836 h 8.1986354 l 1.1386994,-32.5098681 h 0.9678945 L 2.1184052,16.780402 c 0.3985448,1.878854 1.5941792,2.789814 3.5299682,2.789814 h 5.6934976 c 1.935789,0 3.131423,-0.91096 3.529968,-2.789814 l 5.921237,-24.3112321 h 0.967894 l 1.309505,32.5098681 h 8.198635 l -1.537244,-36.039836 c -0.05693,-2.106594 -1.138699,-3.245294 -3.245293,-3.245294 z"
           style="font-style:normal;font-variant:normal;font-weight:bold;font-stretch:normal;font-family:'Exo 2';-inkscape-font-specification:'Exo 2 Bold';stroke-width:1.4233743"
           id="path5335" />
        <path
           d="M 64.528031,18.203777 H 49.440264 c -1.878854,0 -2.675944,-0.854025 -2.675944,-2.960619 V 7.6708071 H 62.421437 V 1.4079603 H 46.76432 v -5.9781719 c 0,-2.049659 0.79709,-2.9036835 2.675944,-2.9036835 h 15.087767 l 0.398545,-6.4336519 c -5.351887,-0.56935 -12.127149,-0.56935 -18.219191,-0.56935 -5.238017,0 -8.59718,3.074489 -8.654115,7.9139614 V 17.235882 c 0.05694,4.839473 3.416098,7.913961 8.654115,7.913961 6.092042,0 12.867304,0 18.219191,-0.56935 z"
           style="font-style:normal;font-variant:normal;font-weight:bold;font-stretch:normal;font-family:'Exo 2';-inkscape-font-specification:'Exo 2 Bold';stroke-width:1.4233743"
           id="path5337" />
        <path
           d="M 100.40685,-7.2461553 V -14.306092 H 68.238594 v 7.0599367 H 79.967198 V 24.979038 h 8.71105 V -7.2461553 Z"
           style="font-style:normal;font-variant:normal;font-weight:bold;font-stretch:normal;font-family:'Exo 2';-inkscape-font-specification:'Exo 2 Bold';stroke-width:1.4233743"
           id="path5339" />
        <path
           d="M 136.42178,24.979038 133.00568,12.73802 C 132.09472,8.6956366 129.41877,7.2722623 127.42605,6.8167825 V 6.5321077 c 5.57963,-0.6832197 7.51542,-4.2131879 7.51542,-9.73588 0,-8.9957257 -4.27013,-11.6147337 -14.51842,-11.6147337 -7.05994,0 -10.2483,0.05693 -14.9739,0.512414 v 39.28513 h 8.54025 V 9.6635311 h 6.09204 c 2.33433,0 3.47303,0.7970899 4.21319,3.3022279 l 2.96061,12.013279 z M 113.9894,2.9452045 V -8.1001798 l 6.26284,-0.056935 c 4.5548,0 5.92124,1.1386994 5.92124,5.5226922 0,4.3270578 -1.36644,5.5796271 -5.92124,5.5796271 z"
           style="font-style:normal;font-variant:normal;font-weight:bold;font-stretch:normal;font-family:'Exo 2';-inkscape-font-specification:'Exo 2 Bold';stroke-width:1.4233743"
           id="path5341" />
        <path
           d="M 173.17775,-14.306092 H 164.4667 V 9.3219213 c 0,7.2307417 -1.76498,9.3942697 -7.003,9.3942697 -5.35188,0 -7.05993,-2.163528 -7.05993,-9.3942697 V -14.306092 h -8.65412 V 9.3219213 c 0,12.0132787 4.27012,16.3972717 16.1126,16.3972717 11.21619,0 15.3155,-4.383993 15.3155,-16.3972717 z"
           style="font-style:normal;font-variant:normal;font-weight:bold;font-stretch:normal;font-family:'Exo 2';-inkscape-font-specification:'Exo 2 Bold';stroke-width:1.4233743"
           id="path5343" />
        <path
           d="m 193.59693,-15.046246 c -10.13442,0 -14.29067,1.878854 -14.29067,10.8745792 0,5.807367 2.16352,9.3373352 8.1417,11.5008641 l 7.91396,2.7898137 c 2.61901,0.854024 3.70077,1.537244 3.70077,4.327058 0,3.188358 -1.25257,3.814643 -5.80737,3.814643 -2.50514,0 -5.69349,-0.11387 -12.98117,-0.284675 l -0.51242,6.262847 c 6.03511,1.309504 10.98845,1.480309 13.49359,1.480309 10.70378,0 14.57536,-2.391269 14.57536,-11.330059 0,-5.7504324 -2.04966,-9.3373356 -8.31251,-11.5577994 l -7.45848,-2.56207371 c -2.96062,-0.96789451 -4.09932,-1.70804909 -4.09932,-4.44092769 0,-3.3591633 1.48031,-3.5869032 5.6935,-3.5869032 4.15625,0 8.99572,0.056935 12.29795,0.1708049 l 0.56935,-5.9212369 c -4.38399,-1.252569 -9.05266,-1.537244 -12.92424,-1.537244 z"
           style="font-style:normal;font-variant:normal;font-weight:bold;font-stretch:normal;font-family:'Exo 2';-inkscape-font-specification:'Exo 2 Bold';stroke-width:1.4233743"
           id="path5345" />
      </g>
    </g>
  </g>
</svg>
