<svg xmlns="http://www.w3.org/2000/svg" xmlns:xlink="http://www.w3.org/1999/xlink" width="1380px" height="840px" viewBox="0 0  1380 840" preserveAspectRatio="xMidYMid meet" ><rect id="svgEditorBackground" x="0" y="0" width="1380" height="840" style="fill: none; stroke: none;"/><defs id="svgEditorDefs"><polygon id="svgEditorShapeDefs" style="fill:khaki;stroke:black;vector-effect:non-scaling-stroke;stroke-width:1px;"/></defs><path d="M51.91845878653001,52.355339447454995c0,6.6270000000000024,-5.373000000000005,12,-12,12s-12,-5.3729999999999976,-12,-12c0,-6.6270000000000024,5.3729999999999976,-12,12,-12s12,5.3729999999999976,12,12Z" transform="matrix(5.26933 0 0 4.19179 389.678 129.484)" style="fill-opacity:0.70;fill:blue;"/><path d="M114.01845878653,88.355339447455h-6.0930000000000035c-0.7810000000000059,0,-1.4590000000000032,-0.4989999999999952,-1.7339999999999947,-1.230000000000004c-0.009000000000000341,-0.022999999999996135,-0.016999999999995907,-0.045000000000001705,-0.02599999999999625,-0.06900000000000261c-0.269999999999996,-0.7120000000000033,-0.12099999999999511,-1.5139999999999958,0.4170000000000016,-2.0520000000000067l4.275999999999996,-4.275999999999996c0.7409999999999997,-0.7409999999999997,0.7409999999999997,-1.9449999999999932,0,-2.686000000000007l-8.626999999999995,-8.626999999999995c-0.7409999999999997,-0.7409999999999997,-1.9449999999999932,-0.7409999999999997,-2.685999999999993,0l-4.275999999999996,4.275999999999996c-0.5390000000000015,0.5390000000000015,-1.340999999999994,0.6869999999999976,-2.0520000000000067,0.4170000000000016c-0.022999999999996135,-0.009000000000000341,-0.045000000000001705,-0.018000000000000682,-0.06900000000000261,-0.02599999999999625c-0.7309999999999945,-0.2750000000000057,-1.230000000000004,-0.9539999999999935,-1.230000000000004,-1.7339999999999947v-6.0930000000000035c0,-1.0490000000000066,-0.8509999999999991,-1.9000000000000057,-1.9000000000000057,-1.9000000000000057h-12.201999999999998c-1.046999999999997,0.0010000000000047748,-1.8979999999999961,0.8520000000000039,-1.8979999999999961,1.9000000000000057v6.168000000000006c0,0.7660000000000053,-0.4609999999999985,1.4539999999999935,-1.1680000000000064,1.7489999999999952c-0.007999999999995566,0.0040000000000048885,-0.016000000000005343,0.006000000000000227,-0.022999999999996135,0.010000000000005116c-0.7109999999999985,0.2980000000000018,-1.5289999999999964,0.1389999999999958,-2.073999999999998,-0.4060000000000059l-4.361999999999995,-4.361999999999995c-0.21699999999999875,-0.21699999999999875,-0.4749999999999943,-0.36299999999999955,-0.7480000000000047,-0.45300000000000296c-0.03900000000001569,-0.01300000000000523,-0.07699999999999818,-0.02400000000000091,-0.11700000000000443,-0.03499999999999659c-0.1560000000000059,-0.04099999999999682,-0.3160000000000025,-0.06900000000000261,-0.47700000000000387,-0.06900000000000261c-0.0010000000000047748,0,-0.0010000000000047748,0,-0.001999999999995339,0s-0.001999999999995339,0,-0.001999999999995339,0c-0.16100000000000136,0,-0.3199999999999932,0.028000000000005798,-0.47700000000000387,0.06900000000000261c-0.04000000000000625,0.010000000000005116,-0.07699999999999818,0.021000000000000796,-0.11700000000000443,0.03499999999999659c-0.27299999999999613,0.09000000000000341,-0.5310000000000059,0.2360000000000042,-0.7480000000000047,0.45300000000000296l-8.626999999999995,8.626999999999995c-0.7409999999999997,0.7409999999999997,-0.7409999999999997,1.9449999999999932,0,2.685999999999993l4.361999999999995,4.361999999999995c0.5450000000000017,0.5450000000000017,0.703000000000003,1.3640000000000043,0.4060000000000059,2.073999999999998c-0.0040000000000048885,0.007999999999995566,-0.006000000000000227,0.016000000000005343,-0.010000000000005116,0.022999999999996135c-0.2960000000000065,0.7069999999999936,-0.9839999999999947,1.168999999999997,-1.75,1.168999999999997h-6.168000000000006c-1.0490000000000066,0,-1.8999999999999986,0.8509999999999991,-1.8999999999999986,1.9000000000000057v12.201999999999998c0,1.0490000000000066,0.8510000000000062,1.9000000000000057,1.8999999999999986,1.9000000000000057h6.0930000000000035c0.7810000000000059,0,1.4590000000000032,0.4989999999999952,1.7339999999999947,1.230000000000004c0.009000000000000341,0.022999999999996135,0.016999999999995907,0.045000000000001705,0.02599999999999625,0.06900000000000261c0.269999999999996,0.7120000000000033,0.12099999999999511,1.5139999999999958,-0.4170000000000016,2.0520000000000067l-4.275999999999996,4.275999999999996c-0.7409999999999997,0.7409999999999997,-0.7409999999999997,1.9449999999999932,0,2.686000000000007l8.626999999999995,8.626999999999995c0.7409999999999997,0.7409999999999997,1.9449999999999932,0.7409999999999997,2.686000000000007,0l4.275999999999996,-4.275999999999996c0.5390000000000015,-0.5390000000000015,1.340999999999994,-0.6869999999999976,2.0520000000000067,-0.4170000000000016c0.022999999999996135,0.009000000000000341,0.045000000000001705,0.018000000000000682,0.06900000000000261,0.02599999999999625c0.7309999999999945,0.2750000000000057,1.230000000000004,0.9539999999999935,1.230000000000004,1.7339999999999947v6.0930000000000035c0,1.0490000000000066,0.8509999999999991,1.8989999999999725,1.9000000000000057,1.8989999999999725h12.201999999999998c1.0490000000000066,0,1.9000000000000057,-0.8509999999999849,1.9000000000000057,-1.8999999999999915v-6.168000000000006c0,-0.7660000000000053,0.4609999999999985,-1.4539999999999935,1.1680000000000064,-1.7489999999999952c0.008000000000009777,-0.0040000000000048885,0.016000000000005343,-0.006000000000000227,0.022999999999996135,-0.010000000000005116c0.7109999999999985,-0.2980000000000018,1.5289999999999964,-0.1389999999999958,2.073999999999998,0.4060000000000059l4.361999999999995,4.361999999999995c0.7409999999999997,0.7409999999999997,1.9449999999999932,0.7409999999999997,2.685999999999993,0l8.626999999999995,-8.626999999999995c0.7409999999999997,-0.7409999999999997,0.7409999999999997,-1.9449999999999932,0,-2.686000000000007l-4.361999999999995,-4.361999999999995c-0.5450000000000017,-0.5450000000000017,-0.703000000000003,-1.3640000000000043,-0.4060000000000059,-2.073999999999998c0.0040000000000048885,-0.007999999999995566,0.006000000000000227,-0.016000000000005343,0.010000000000005116,-0.022999999999996135c0.2950000000000017,-0.7069999999999936,0.9830000000000041,-1.1680000000000064,1.7489999999999952,-1.1680000000000064h6.168000000000006c1.0490000000000066,0,1.9000000000000057,-0.8509999999999991,1.9000000000000057,-1.9000000000000057v-12.201999999999998c-0.0010000000000047748,-1.051000000000002,-0.8520000000000039,-1.9009999999999962,-1.9000000000000057,-1.9009999999999962ZM67.54345878653001,68.96133944745499c-0.0379999999999967,-0.01300000000000523,-0.0759999999999934,-0.02400000000000091,-0.11499999999999488,-0.034000000000006025c0.03900000000000148,0.010000000000005116,0.0759999999999792,0.01999999999999602,0.11499999999999488,0.034000000000006025ZM66.46745878653002,68.92833944745499c-0.0379999999999967,0.010000000000005116,-0.07699999999999818,0.021000000000000796,-0.11499999999999488,0.034000000000006025c0.03900000000000148,-0.01300000000000523,0.0759999999999934,-0.02400000000000091,0.11499999999999488,-0.034000000000006025ZM83.91845878653001,112.355339447455c-8.837000000000003,0,-16,-7.162999999999997,-16,-16s7.162999999999997,-16,16,-16s16,7.162999999999997,16,16s-7.162999999999997,16,-16,16Z" transform="matrix(5.26933 0 0 4.19179 389.678 129.484)" style="fill:blue;fill-opacity:0.70;"/><path d="M91.91845878653001,96.355339447455c0,4.418000000000006,-3.5819999999999936,8,-8,8s-8,-3.5819999999999936,-8,-8c0,-4.418000000000006,3.5819999999999936,-8,8,-8s8,3.5819999999999936,8,8Z" transform="matrix(5.26933 0 0 4.19179 389.678 129.484)" style="fill-opacity:0.70;fill:blue;"/><path d="M-9.23254121346999,64.355339447455h13.253c1.154,0,2.189,0.6989999999999981,2.628,1.7650000000000006c0.004999999999999005,0.01099999999999568,0.010000000000001563,0.022999999999996135,0.013999999999999346,0.03499999999999659c0.43900000000000006,1.0630000000000024,0.1999999999999993,2.284000000000006,-0.6140000000000008,3.097999999999999l-9.371,9.370999999999995c-1.112,1.1119999999999948,-1.112,2.915999999999997,0,4.028000000000006l12.942000000000002,12.942000000000007c1.112,1.1119999999999948,2.9160000000000004,1.1119999999999948,4.029,0l9.370999999999999,-9.370999999999995c0.8140000000000001,-0.8140000000000072,2.0349999999999966,-1.0529999999999973,3.097999999999999,-0.6140000000000043c0.011000000000002785,0.0040000000000048885,0.02300000000000324,0.010000000000005116,0.03499999999999659,0.013999999999995794c1.0670000000000002,0.43899999999999295,1.7650000000000006,1.4749999999999943,1.7650000000000006,2.629000000000005v13.253c0,1.5729999999999933,1.2760000000000034,2.8490000000000038,2.8490000000000038,2.8490000000000038h13.355000000000004c-0.12100000000000222,-0.6170000000000044,-0.2049999999999983,-1.2469999999999999,-0.2049999999999983,-1.9000000000000057v-12.201999999999998c0,-3.593999999999994,1.9249999999999972,-6.745999999999995,4.796999999999997,-8.480999999999995c-0.2220000000000013,-0.9000000000000057,-0.30400000000000205,-1.823999999999998,-0.2710000000000008,-2.7450000000000045c-2.689,0.8589999999999947,-5.552999999999997,1.3269999999999982,-8.525999999999996,1.3269999999999982c-15.463999999999999,0,-28,-12.536000000000001,-28,-28s12.536000000000001,-28,28,-28s28,12.536000000000001,28,28c0,2.9710000000000036,-0.46699999999999875,5.832999999999998,-1.3250000000000028,8.519999999999996c0.117999999999995,-0.005000000000002558,0.23499999999999943,-0.018000000000000682,0.3539999999999992,-0.018000000000000682c0.8169999999999931,0,1.6200000000000045,0.09799999999999898,2.391999999999996,0.2890000000000015c1.7360000000000042,-2.868000000000002,4.8870000000000005,-4.790999999999997,8.477999999999994,-4.790999999999997h12.201999999999998c0.6509999999999962,0,1.2819999999999965,0.08400000000000318,1.9000000000000057,0.2049999999999983v-13.355000000000004c0,-1.5730000000000004,-1.2750000000000057,-2.8490000000000038,-2.8490000000000038,-2.8490000000000038h-13.253c-1.1539999999999964,0,-2.188999999999993,-0.6989999999999981,-2.629000000000005,-1.7650000000000006c-0.0040000000000048885,-0.01099999999999568,-0.010000000000005116,-0.02300000000000324,-0.013999999999995794,-0.03499999999999659c-0.43899999999999295,-1.0630000000000024,-0.20000000000000284,-2.2849999999999966,0.6140000000000043,-3.097999999999999l9.370999999999995,-9.371000000000002c1.1119999999999948,-1.1120000000000019,1.1119999999999948,-2.9160000000000004,0,-4.029l-12.941999999999993,-12.942c-1.1119999999999948,-1.112,-2.915999999999997,-1.112,-4.028000000000006,0l-9.373000000000005,9.370999999999999c-0.813999999999993,0.8140000000000001,-2.0349999999999966,1.0530000000000008,-3.097999999999999,0.6140000000000008c-0.01099999999999568,-0.004999999999999005,-0.022999999999996135,-0.010000000000001563,-0.03499999999999659,-0.013999999999999346c-1.066999999999993,-0.43900000000000006,-1.7650000000000006,-1.4750000000000014,-1.7650000000000006,-2.628v-13.253c0,-1.5729999999999995,-1.2760000000000034,-2.849,-2.8490000000000038,-2.849h-18.302c-1.5730000000000004,0,-2.8489999999999966,1.2760000000000007,-2.8489999999999966,2.849v13.253c0,1.154,-0.6989999999999981,2.189,-1.7650000000000006,2.628c-0.011000000000002785,0.004999999999999005,-0.02300000000000324,0.010000000000001563,-0.03499999999999659,0.013999999999999346c-1.0629999999999988,0.43900000000000006,-2.2849999999999966,0.1999999999999993,-3.097999999999999,-0.6140000000000008l-9.371000000000002,-9.371c-1.1120000000000019,-1.112,-2.9160000000000004,-1.112,-4.029,0l-12.942,12.941999999999998c-1.112,1.1120000000000019,-1.112,2.9160000000000004,0,4.029l9.370999999999999,9.370999999999999c0.8140000000000001,0.8140000000000001,1.0530000000000008,2.0350000000000037,0.6140000000000008,3.097999999999999c-0.004999999999999005,0.011000000000002785,-0.010000000000001563,0.02300000000000324,-0.013999999999999346,0.03499999999999659c-0.43900000000000006,1.0670000000000002,-1.4750000000000014,1.7650000000000006,-2.628,1.7650000000000006h-13.253c-1.5730000000000004,0,-2.849,1.2760000000000034,-2.849,2.8489999999999966v18.302c0,1.5730000000000004,1.2759999999999998,2.8489999999999966,2.849,2.8489999999999966Z" transform="matrix(5.26933 0 0 4.19179 389.678 129.484)" style="fill:blue;fill-opacity:0.70;"/></svg>