<?xml version="1.0" encoding="UTF-8" standalone="no"?>
<!-- Created with Inkscape (http://www.inkscape.org/) -->

<svg
   xmlns:dc="http://purl.org/dc/elements/1.1/"
   xmlns:cc="http://creativecommons.org/ns#"
   xmlns:rdf="http://www.w3.org/1999/02/22-rdf-syntax-ns#"
   xmlns:svg="http://www.w3.org/2000/svg"
   xmlns="http://www.w3.org/2000/svg"
   xmlns:sodipodi="http://sodipodi.sourceforge.net/DTD/sodipodi-0.dtd"
   xmlns:inkscape="http://www.inkscape.org/namespaces/inkscape"
   width="221.05602mm"
   height="104.60441mm"
   viewBox="0 0 221.05601 104.60441"
   version="1.1"
   id="svg5582"
   inkscape:version="0.92.3 (2405546, 2018-03-11)"
   sodipodi:docname="noFoto.svg">
  <defs
     id="defs5576">
    <linearGradient
       id="SVGID_1_"
       gradientUnits="userSpaceOnUse"
       x1="49"
       y1="94.25"
       x2="49"
       y2="13.3295"
       gradientTransform="matrix(1,0,0,-1,0,104)">
      <stop
         offset="0"
         style="stop-color:#00EFD1"
         id="stop4" />
      <stop
         offset="1"
         style="stop-color:#00ACEA"
         id="stop6" />
    </linearGradient>
    <linearGradient
       id="SVGID_2_"
       gradientUnits="userSpaceOnUse"
       x1="50.5"
       y1="94.25"
       x2="50.5"
       y2="13.3295"
       gradientTransform="matrix(1,0,0,-1,0,104)">
      <stop
         offset="0"
         style="stop-color:#00EFD1"
         id="stop11" />
      <stop
         offset="1"
         style="stop-color:#00ACEA"
         id="stop13" />
    </linearGradient>
    <linearGradient
       id="SVGID_3_"
       gradientUnits="userSpaceOnUse"
       x1="42.6427"
       y1="94.25"
       x2="42.6427"
       y2="13.3295"
       gradientTransform="matrix(1,0,0,-1,0,104)">
      <stop
         offset="0"
         style="stop-color:#00EFD1"
         id="stop18" />
      <stop
         offset="1"
         style="stop-color:#00ACEA"
         id="stop20" />
    </linearGradient>
  </defs>
  <sodipodi:namedview
     id="base"
     pagecolor="#ffffff"
     bordercolor="#666666"
     borderopacity="1.0"
     inkscape:pageopacity="0.0"
     inkscape:pageshadow="2"
     inkscape:zoom="1"
     inkscape:cx="372.28113"
     inkscape:cy="103.55887"
     inkscape:document-units="mm"
     inkscape:current-layer="layer1"
     showgrid="false"
     inkscape:window-width="1920"
     inkscape:window-height="1018"
     inkscape:window-x="-8"
     inkscape:window-y="-8"
     inkscape:window-maximized="1" />
  <metadata
     id="metadata5579">
    <rdf:RDF>
      <cc:Work
         rdf:about="">
        <dc:format>image/svg+xml</dc:format>
        <dc:type
           rdf:resource="http://purl.org/dc/dcmitype/StillImage" />
        <dc:title />
      </cc:Work>
    </rdf:RDF>
  </metadata>
  <g
     inkscape:label="Camada 1"
     inkscape:groupmode="layer"
     id="layer1"
     transform="translate(-37.698146,-11.59574)">
    <g
       aria-label="NÃO HÁ FOTO PARA ESTA MEDIÇÃO."
       style="font-style:normal;font-variant:normal;font-weight:normal;font-stretch:normal;font-size:10.58333302px;line-height:1.25;font-family:'Exo 2';-inkscape-font-specification:'Exo 2, ';letter-spacing:0px;word-spacing:0px;fill:#000000;fill-opacity:1;stroke:none;stroke-width:0.26458332"
       id="text5792"
       transform="matrix(0.49536141,0,0,0.50748866,35.714726,29.083097)">
      <g
         aria-label="NÃO HÁ FOTO PARA ESTA MEDIÇÃO."
         transform="scale(1.0121668,0.98797946)"
         style="font-style:normal;font-weight:normal;font-size:21.10805511px;line-height:1.25;font-family:sans-serif;letter-spacing:0px;word-spacing:0px;fill:#000000;fill-opacity:1;stroke:none;stroke-width:0.13962097"
         id="text131">
        <path
           d="M 18.54201,147.06539 H 16.152188 V 160.8 c 0,0.96142 0.02747,1.89537 0.08241,2.88427 h -0.466977 c -0.412038,-0.93396 -0.906484,-1.97779 -1.291053,-2.74693 L 8.2685232,147.83453 C 8.0487695,147.31261 7.7466081,147.06539 7.1972238,147.06539 H 4.917279 c -0.631792,0 -0.9614226,0.32963 -0.9614226,0.96142 v 17.99234 h 2.417291 v -14.20158 c 0,-0.82408 -0.027469,-1.67563 -0.1098769,-2.4997 H 6.702778 c 0.2197537,0.76913 0.7416688,1.7855 1.0712994,2.4997 l 6.4003276,13.43244 c 0.219753,0.52192 0.521915,0.76914 1.071299,0.76914 h 2.362352 c 0.604323,0 0.933954,-0.32963 0.933954,-0.96142 z"
           style="font-style:normal;font-variant:normal;font-weight:normal;font-stretch:normal;font-size:27.46921539px;font-family:'Exo 2';-inkscape-font-specification:'Exo 2, ';stroke-width:0.13962097"
           id="path196"
           inkscape:connector-curvature="0" />
        <path
           d="m 26.235536,145.0052 c 0,-1.09877 0.274692,-1.59321 1.291053,-1.48334 1.345992,0.16482 2.279945,1.4284 4.147852,1.56575 1.428399,0.10987 2.362352,-1.01636 2.142599,-3.07655 h -1.098769 c 0,1.04383 -0.302161,1.5108 -1.345992,1.37346 -1.538276,-0.16482 -2.389821,-1.37346 -4.092913,-1.51081 -1.345991,-0.10988 -2.362352,0.93395 -2.142599,3.13149 z m 7.141996,15.0806 1.867907,5.93335 h 2.472229 l -6.070697,-18.2945 c -0.109876,-0.41204 -0.466976,-0.65926 -0.906484,-0.65926 H 28.18585 c -0.412038,0 -0.769138,0.24722 -0.879015,0.65926 l -6.098165,18.2945 h 2.472229 l 1.895376,-5.93335 z m -0.659261,-2.08766 h -6.482735 l 2.389822,-7.52657 c 0.137346,-0.49444 0.302161,-1.04383 0.466976,-1.53827 h 0.769138 c 0.109877,0.49444 0.302162,1.04383 0.466977,1.53827 z"
           style="font-style:normal;font-variant:normal;font-weight:normal;font-stretch:normal;font-size:27.46921539px;font-family:'Exo 2';-inkscape-font-specification:'Exo 2, ';stroke-width:0.13962097"
           id="path198"
           inkscape:connector-curvature="0" />
        <path
           d="m 47.062354,146.70829 c -5.521312,0 -7.499095,2.41729 -7.499095,9.83398 0,7.41669 1.977783,9.83398 7.499095,9.83398 5.521313,0 7.471627,-2.41729 7.471627,-9.83398 0,-7.41669 -1.950314,-9.83398 -7.471627,-9.83398 z m 0,2.17007 c 3.735814,0 4.944459,1.86791 4.944459,7.66391 0,5.796 -1.208645,7.66391 -4.944459,7.66391 -3.735813,0 -4.944458,-1.86791 -4.944458,-7.66391 0,-5.796 1.208645,-7.66391 4.944458,-7.66391 z"
           style="font-style:normal;font-variant:normal;font-weight:normal;font-stretch:normal;font-size:27.46921539px;font-family:'Exo 2';-inkscape-font-specification:'Exo 2, ';stroke-width:0.13962097"
           id="path200"
           inkscape:connector-curvature="0" />
        <path
           d="m 78.312018,147.06539 h -2.417291 v 7.77379 h -8.73521 v -7.77379 h -2.417291 v 18.95376 h 2.417291 v -9.09231 h 8.73521 v 9.09231 h 2.417291 z"
           style="font-style:normal;font-variant:normal;font-weight:normal;font-stretch:normal;font-size:27.46921539px;font-family:'Exo 2';-inkscape-font-specification:'Exo 2, ';stroke-width:0.13962097"
           id="path202"
           inkscape:connector-curvature="0" />
        <path
           d="m 88.255018,146.02156 5.274089,-3.2963 -1.345992,-1.7855 -4.724705,4.0105 z m 4.88952,14.06424 1.867907,5.93335 h 2.472229 l -6.070697,-18.2945 c -0.109876,-0.41204 -0.466976,-0.65926 -0.906484,-0.65926 h -2.554637 c -0.412038,0 -0.769138,0.24722 -0.879015,0.65926 l -6.098165,18.2945 h 2.472229 l 1.895376,-5.93335 z m -0.659261,-2.08766 h -6.482735 l 2.389822,-7.52657 c 0.137346,-0.49444 0.302161,-1.04383 0.466976,-1.53827 h 0.769138 c 0.109877,0.49444 0.302162,1.04383 0.466977,1.53827 z"
           style="font-style:normal;font-variant:normal;font-weight:normal;font-stretch:normal;font-size:27.46921539px;font-family:'Exo 2';-inkscape-font-specification:'Exo 2, ';stroke-width:0.13962097"
           id="path204"
           inkscape:connector-curvature="0" />
        <path
           d="m 116.94146,149.09811 0.13735,-1.8679 c -2.44476,-0.19229 -5.21915,-0.19229 -7.8562,-0.19229 -2.225,0 -3.6534,1.23612 -3.6534,3.40618 v 15.57505 h 2.41729 v -8.76268 h 7.91113 v -1.95031 h -7.91113 v -4.39508 c 0,-1.26358 0.54938,-1.81297 1.84044,-1.81297 z"
           style="font-style:normal;font-variant:normal;font-weight:normal;font-stretch:normal;font-size:27.46921539px;font-family:'Exo 2';-inkscape-font-specification:'Exo 2, ';stroke-width:0.13962097"
           id="path206"
           inkscape:connector-curvature="0" />
        <path
           d="m 127.00206,146.70829 c -5.52131,0 -7.4991,2.41729 -7.4991,9.83398 0,7.41669 1.97779,9.83398 7.4991,9.83398 5.52131,0 7.47163,-2.41729 7.47163,-9.83398 0,-7.41669 -1.95032,-9.83398 -7.47163,-9.83398 z m 0,2.17007 c 3.73581,0 4.94446,1.86791 4.94446,7.66391 0,5.796 -1.20865,7.66391 -4.94446,7.66391 -3.73581,0 -4.94446,-1.86791 -4.94446,-7.66391 0,-5.796 1.20865,-7.66391 4.94446,-7.66391 z"
           style="font-style:normal;font-variant:normal;font-weight:normal;font-stretch:normal;font-size:27.46921539px;font-family:'Exo 2';-inkscape-font-specification:'Exo 2, ';stroke-width:0.13962097"
           id="path208"
           inkscape:connector-curvature="0" />
        <path
           d="m 151.10072,149.20799 v -2.1426 h -14.64109 v 2.1426 h 6.09816 v 16.81116 h 2.41729 v -16.81116 z"
           style="font-style:normal;font-variant:normal;font-weight:normal;font-stretch:normal;font-size:27.46921539px;font-family:'Exo 2';-inkscape-font-specification:'Exo 2, ';stroke-width:0.13962097"
           id="path210"
           inkscape:connector-curvature="0" />
        <path
           d="m 160.53381,146.70829 c -5.52131,0 -7.49909,2.41729 -7.49909,9.83398 0,7.41669 1.97778,9.83398 7.49909,9.83398 5.52132,0 7.47163,-2.41729 7.47163,-9.83398 0,-7.41669 -1.95031,-9.83398 -7.47163,-9.83398 z m 0,2.17007 c 3.73582,0 4.94446,1.86791 4.94446,7.66391 0,5.796 -1.20864,7.66391 -4.94446,7.66391 -3.73581,0 -4.94446,-1.86791 -4.94446,-7.66391 0,-5.796 1.20865,-7.66391 4.94446,-7.66391 z"
           style="font-style:normal;font-variant:normal;font-weight:normal;font-stretch:normal;font-size:27.46921539px;font-family:'Exo 2';-inkscape-font-specification:'Exo 2, ';stroke-width:0.13962097"
           id="path212"
           inkscape:connector-curvature="0" />
        <path
           d="m 177.37159,146.73576 c -4.23026,0 -6.1531,0.57685 -6.1531,4.9994 0,2.88427 0.98889,4.58736 3.73581,5.27409 l 3.9281,0.98889 c 1.64815,0.41204 2.38982,0.93395 2.38982,3.13149 0,2.60957 -0.90648,3.04908 -3.81822,3.04908 -1.56574,0.0275 -2.58211,-0.0275 -5.796,-0.13734 l -0.16482,1.7855 c 2.58211,0.46697 4.6423,0.52191 5.87841,0.52191 4.42255,0 6.34539,-0.79661 6.34539,-5.16421 0,-2.93921 -0.90648,-4.61483 -3.81822,-5.32903 l -3.84569,-0.96142 c -1.67562,-0.41204 -2.38982,-1.01636 -2.38982,-3.10402 0,-2.80186 1.0713,-2.88427 3.81822,-2.88427 1.75803,0 3.76328,0.0549 5.3565,0.13734 l 0.16481,-1.75803 c -1.89537,-0.41203 -3.84569,-0.52191 -5.63119,-0.54938 z"
           style="font-style:normal;font-variant:normal;font-weight:normal;font-stretch:normal;font-size:27.46921539px;font-family:'Exo 2';-inkscape-font-specification:'Exo 2, ';stroke-width:0.13962097"
           id="path214"
           inkscape:connector-curvature="0" />
        <path
           d="m 200.12168,146.81817 c -3.04908,0 -4.45001,0.0275 -6.5102,0.24722 v 18.95376 h 2.41729 v -7.55403 c 1.18118,0.10987 2.71945,0.21975 4.36761,0.21975 4.28519,0 5.82347,-1.26358 5.82347,-5.93335 0,-4.6423 -1.53828,-5.93335 -6.09817,-5.93335 z m -4.09291,9.77904 v -7.66391 c 1.0713,-0.0275 2.47223,-0.0275 4.06545,-0.0275 2.74692,0 3.68087,0.79661 3.68087,3.84569 0,3.04908 -0.93395,3.81822 -3.68087,3.84569 z"
           style="font-style:normal;font-variant:normal;font-weight:normal;font-stretch:normal;font-size:27.46921539px;font-family:'Exo 2';-inkscape-font-specification:'Exo 2, ';stroke-width:0.13962097"
           id="path216"
           inkscape:connector-curvature="0" />
        <path
           d="m 218.90205,160.0858 1.8679,5.93335 h 2.4997 l -6.09817,-18.2945 c -0.10987,-0.41204 -0.46697,-0.65926 -0.90648,-0.65926 h -2.52717 c -0.4395,0 -0.7966,0.24722 -0.90648,0.65926 l -6.09817,18.2945 h 2.4997 l 1.86791,-5.93335 z m -0.65927,-2.08766 h -6.48273 l 2.38982,-7.52657 c 0.16482,-0.49444 0.32963,-1.04383 0.46698,-1.53827 h 0.76914 c 0.13734,0.49444 0.30216,1.04383 0.46697,1.53827 z"
           style="font-style:normal;font-variant:normal;font-weight:normal;font-stretch:normal;font-size:27.46921539px;font-family:'Exo 2';-inkscape-font-specification:'Exo 2, ';stroke-width:0.13962097"
           id="path218"
           inkscape:connector-curvature="0" />
        <path
           d="m 239.25931,166.01915 -1.84044,-5.98829 c -0.41204,-1.59321 -1.40093,-2.47223 -2.33488,-2.71945 v -0.13735 c 2.4997,-0.32963 3.48859,-1.81297 3.48859,-4.88952 0,-4.25773 -1.73056,-5.46637 -6.12564,-5.46637 -3.04908,0 -4.47748,0.0275 -6.53767,0.24722 v 18.95376 h 2.38982 v -7.9386 c 1.04383,0 2.41729,0.0275 4.17532,0.0275 1.26359,0 2.03273,0.54938 2.52717,1.97778 l 1.67562,5.93335 z m -10.96022,-9.99879 v -7.08706 c 1.0713,0 2.47223,-0.0275 4.09292,-0.0275 2.80186,0 3.73581,0.74167 3.73581,3.51606 0,2.80186 -0.93395,3.571 -3.73581,3.59847 z"
           style="font-style:normal;font-variant:normal;font-weight:normal;font-stretch:normal;font-size:27.46921539px;font-family:'Exo 2';-inkscape-font-specification:'Exo 2, ';stroke-width:0.13962097"
           id="path220"
           inkscape:connector-curvature="0" />
        <path
           d="m 252.91665,160.0858 1.8679,5.93335 h 2.4997 l -6.09816,-18.2945 c -0.10988,-0.41204 -0.46698,-0.65926 -0.90649,-0.65926 h -2.52716 c -0.43951,0 -0.79661,0.24722 -0.90649,0.65926 l -6.09816,18.2945 h 2.49969 l 1.86791,-5.93335 z m -0.65926,-2.08766 h -6.48274 l 2.38982,-7.52657 c 0.16482,-0.49444 0.32963,-1.04383 0.46698,-1.53827 h 0.76914 c 0.13734,0.49444 0.30216,1.04383 0.46698,1.53827 z"
           style="font-style:normal;font-variant:normal;font-weight:normal;font-stretch:normal;font-size:27.46921539px;font-family:'Exo 2';-inkscape-font-specification:'Exo 2, ';stroke-width:0.13962097"
           id="path222"
           inkscape:connector-curvature="0" />
        <path
           d="m 276.90586,164.0139 h -7.60898 c -1.12623,0 -1.64815,-0.54939 -1.64815,-1.84044 v -5.19168 h 8.18583 v -1.95032 h -8.18583 v -4.12038 c 0,-1.26358 0.52192,-1.81297 1.64815,-1.81297 h 7.60898 l 0.10987,-1.89537 c -2.52716,-0.16482 -5.41143,-0.16482 -8.13088,-0.16482 -2.22501,0 -3.62594,1.26359 -3.65341,3.29631 v 12.41608 c 0.0275,2.03273 1.4284,3.29631 3.65341,3.29631 2.71945,0 5.60372,0 8.13088,-0.16482 z"
           style="font-style:normal;font-variant:normal;font-weight:normal;font-stretch:normal;font-size:27.46921539px;font-family:'Exo 2';-inkscape-font-specification:'Exo 2, ';stroke-width:0.13962097"
           id="path224"
           inkscape:connector-curvature="0" />
        <path
           d="m 286.06814,146.73576 c -4.23026,0 -6.1531,0.57685 -6.1531,4.9994 0,2.88427 0.98889,4.58736 3.73581,5.27409 l 3.9281,0.98889 c 1.64815,0.41204 2.38982,0.93395 2.38982,3.13149 0,2.60957 -0.90648,3.04908 -3.81822,3.04908 -1.56575,0.0275 -2.58211,-0.0275 -5.79601,-0.13734 l -0.16481,1.7855 c 2.58211,0.46697 4.6423,0.52191 5.87841,0.52191 4.42255,0 6.34539,-0.79661 6.34539,-5.16421 0,-2.93921 -0.90648,-4.61483 -3.81822,-5.32903 l -3.84569,-0.96142 c -1.67562,-0.41204 -2.38982,-1.01636 -2.38982,-3.10402 0,-2.80186 1.0713,-2.88427 3.81822,-2.88427 1.75803,0 3.76328,0.0549 5.3565,0.13734 l 0.16481,-1.75803 c -1.89538,-0.41203 -3.84569,-0.52191 -5.63119,-0.54938 z"
           style="font-style:normal;font-variant:normal;font-weight:normal;font-stretch:normal;font-size:27.46921539px;font-family:'Exo 2';-inkscape-font-specification:'Exo 2, ';stroke-width:0.13962097"
           id="path226"
           inkscape:connector-curvature="0" />
        <path
           d="m 309.10235,149.20799 v -2.1426 h -14.64109 v 2.1426 h 6.09816 v 16.81116 h 2.41729 v -16.81116 z"
           style="font-style:normal;font-variant:normal;font-weight:normal;font-stretch:normal;font-size:27.46921539px;font-family:'Exo 2';-inkscape-font-specification:'Exo 2, ';stroke-width:0.13962097"
           id="path228"
           inkscape:connector-curvature="0" />
        <path
           d="m 320.57032,160.0858 1.86791,5.93335 h 2.49969 l -6.09816,-18.2945 c -0.10988,-0.41204 -0.46698,-0.65926 -0.90649,-0.65926 h -2.52716 c -0.43951,0 -0.79661,0.24722 -0.90649,0.65926 l -6.09816,18.2945 h 2.4997 l 1.8679,-5.93335 z m -0.65926,-2.08766 h -6.48274 l 2.38982,-7.52657 c 0.16482,-0.49444 0.32964,-1.04383 0.46698,-1.53827 h 0.76914 c 0.13735,0.49444 0.30216,1.04383 0.46698,1.53827 z"
           style="font-style:normal;font-variant:normal;font-weight:normal;font-stretch:normal;font-size:27.46921539px;font-family:'Exo 2';-inkscape-font-specification:'Exo 2, ';stroke-width:0.13962097"
           id="path230"
           inkscape:connector-curvature="0" />
        <path
           d="m 348.24042,147.06539 c -0.54939,0 -0.90649,0.27469 -1.04383,0.82408 l -3.54353,11.5096 c -0.27469,0.90648 -0.46698,1.73056 -0.7142,2.60957 h -0.49445 c -0.24722,-0.87901 -0.4395,-1.70309 -0.7142,-2.55463 l -3.54352,-11.56454 c -0.16482,-0.54939 -0.46698,-0.82408 -1.01637,-0.82408 h -2.74692 c -0.63179,0 -0.98889,0.3571 -1.01636,1.01636 l -0.74167,17.9374 h 2.41729 l 0.65927,-16.94851 h 0.54938 l 4.23026,13.98183 c 0.16481,0.52192 0.52191,0.82408 1.09877,0.82408 h 2.17007 c 0.54938,0 0.90648,-0.30216 1.04383,-0.82408 l 4.23025,-13.98183 h 0.57686 l 0.68673,16.94851 h 2.41729 l -0.79661,-17.9374 c 0,-0.65926 -0.3571,-1.01636 -0.98889,-1.01636 z"
           style="font-style:normal;font-variant:normal;font-weight:normal;font-stretch:normal;font-size:27.46921539px;font-family:'Exo 2';-inkscape-font-specification:'Exo 2, ';stroke-width:0.13962097"
           id="path232"
           inkscape:connector-curvature="0" />
        <path
           d="m 368.64875,164.0139 h -7.60898 c -1.12623,0 -1.64815,-0.54939 -1.64815,-1.84044 v -5.19168 h 8.18583 v -1.95032 h -8.18583 v -4.12038 c 0,-1.26358 0.52192,-1.81297 1.64815,-1.81297 h 7.60898 l 0.10987,-1.89537 c -2.52716,-0.16482 -5.41143,-0.16482 -8.13088,-0.16482 -2.22501,0 -3.62594,1.26359 -3.65341,3.29631 v 12.41608 c 0.0275,2.03273 1.4284,3.29631 3.65341,3.29631 2.71945,0 5.60372,0 8.13088,-0.16482 z"
           style="font-style:normal;font-variant:normal;font-weight:normal;font-stretch:normal;font-size:27.46921539px;font-family:'Exo 2';-inkscape-font-specification:'Exo 2, ';stroke-width:0.13962097"
           id="path234"
           inkscape:connector-curvature="0" />
        <path
           d="m 379.29437,146.81817 c -2.60958,0 -4.77964,0.10988 -6.75743,0.24722 v 18.95376 c 1.97779,0.13735 4.14785,0.24722 6.75743,0.24722 5.4389,0 7.38922,-2.38982 7.38922,-9.7241 0,-7.33428 -1.95032,-9.7241 -7.38922,-9.7241 z m 0,17.33307 c -1.64815,0 -3.10402,-0.0275 -4.34014,-0.0549 v -15.13553 c 1.29106,-0.0275 2.66452,-0.0549 4.34014,-0.0549 3.62594,0 4.86205,1.89537 4.86205,7.63644 0,5.74107 -1.23611,7.60897 -4.86205,7.60897 z"
           style="font-style:normal;font-variant:normal;font-weight:normal;font-stretch:normal;font-size:27.46921539px;font-family:'Exo 2';-inkscape-font-specification:'Exo 2, ';stroke-width:0.13962097"
           id="path236"
           inkscape:connector-curvature="0" />
        <path
           d="m 393.1955,166.01915 v -18.95376 h -2.41729 v 18.95376 z"
           style="font-style:normal;font-variant:normal;font-weight:normal;font-stretch:normal;font-size:27.46921539px;font-family:'Exo 2';-inkscape-font-specification:'Exo 2, ';stroke-width:0.13962097"
           id="path238"
           inkscape:connector-curvature="0" />
        <path
           d="m 404.66991,146.73576 c -5.46637,0 -7.41669,2.58211 -7.41669,9.80651 0,7.2244 1.95032,9.80651 7.41669,9.80651 2.4997,0 3.98304,-0.19228 5.57625,-0.63179 l -0.27469,-1.81297 c -1.51081,0.21975 -2.96668,0.30216 -5.30156,0.30216 -3.68087,0 -4.88952,-1.89537 -4.88952,-7.66391 0,-5.76853 1.20865,-7.66391 4.88952,-7.66391 2.19754,0 3.29631,0.0824 4.91699,0.24722 l 0.27469,-1.84044 c -1.56574,-0.38456 -2.80186,-0.54938 -5.19168,-0.54938 z m -1.59321,21.89297 c 1.31852,0.0275 1.64815,0.21975 1.62068,0.87901 -0.0275,1.12624 -1.04383,1.95031 -2.55464,1.89538 l -0.3571,1.23611 c 2.60958,0.3571 4.53242,-0.98889 4.58736,-3.32377 0.0549,-1.64816 -0.93395,-1.97779 -3.04908,-1.7855 z"
           style="font-style:normal;font-variant:normal;font-weight:normal;font-stretch:normal;font-size:27.46921539px;font-family:'Exo 2';-inkscape-font-specification:'Exo 2, ';stroke-width:0.13962097"
           id="path240"
           inkscape:connector-curvature="0" />
        <path
           d="m 416.54521,145.0052 c 0,-1.09877 0.27469,-1.59321 1.29105,-1.48334 1.34599,0.16482 2.27994,1.4284 4.14785,1.56575 1.4284,0.10987 2.36235,-1.01636 2.1426,-3.07655 h -1.09877 c 0,1.04383 -0.30216,1.5108 -1.34599,1.37346 -1.53828,-0.16482 -2.38982,-1.37346 -4.09291,-1.51081 -1.346,-0.10988 -2.36236,0.93395 -2.1426,3.13149 z m 7.14199,15.0806 1.86791,5.93335 h 2.47223 l -6.0707,-18.2945 c -0.10988,-0.41204 -0.46698,-0.65926 -0.90648,-0.65926 h -2.55464 c -0.41204,0 -0.76914,0.24722 -0.87902,0.65926 l -6.09816,18.2945 h 2.47223 l 1.89537,-5.93335 z m -0.65926,-2.08766 h -6.48273 l 2.38982,-7.52657 c 0.13734,-0.49444 0.30216,-1.04383 0.46697,-1.53827 h 0.76914 c 0.10988,0.49444 0.30216,1.04383 0.46698,1.53827 z"
           style="font-style:normal;font-variant:normal;font-weight:normal;font-stretch:normal;font-size:27.46921539px;font-family:'Exo 2';-inkscape-font-specification:'Exo 2, ';stroke-width:0.13962097"
           id="path242"
           inkscape:connector-curvature="0" />
        <path
           d="m 437.37201,146.70829 c -5.52131,0 -7.4991,2.41729 -7.4991,9.83398 0,7.41669 1.97779,9.83398 7.4991,9.83398 5.52131,0 7.47163,-2.41729 7.47163,-9.83398 0,-7.41669 -1.95032,-9.83398 -7.47163,-9.83398 z m 0,2.17007 c 3.73581,0 4.94446,1.86791 4.94446,7.66391 0,5.796 -1.20865,7.66391 -4.94446,7.66391 -3.73581,0 -4.94446,-1.86791 -4.94446,-7.66391 0,-5.796 1.20865,-7.66391 4.94446,-7.66391 z"
           style="font-style:normal;font-variant:normal;font-weight:normal;font-stretch:normal;font-size:27.46921539px;font-family:'Exo 2';-inkscape-font-specification:'Exo 2, ';stroke-width:0.13962097"
           id="path244"
           inkscape:connector-curvature="0" />
      </g>
    </g>
    <g
       id="g194"
       transform="matrix(0.77631142,0,0,0.77631142,9.7969505,23.196419)">
      <g
         transform="matrix(1.3823129,0,0,1.3823129,110.58325,-33.504379)"
         id="g25">
        <linearGradient
           gradientTransform="matrix(1,0,0,-1,0,104)"
           y2="13.3295"
           x2="49"
           y1="94.25"
           x1="49"
           gradientUnits="userSpaceOnUse"
           id="linearGradient55">
          <stop
             id="stop51"
             style="stop-color:#00EFD1"
             offset="0" />
          <stop
             id="stop53"
             style="stop-color:#00ACEA"
             offset="1" />
        </linearGradient>
        <path
           inkscape:connector-curvature="0"
           style="fill:url(#SVGID_1_)"
           id="path9"
           d="M 92.5,28.1 H 80.7 v -9.7 c 0,-1.7 -1.3,-3 -3,-3 H 5.5 c -1.7,0 -3,1.3 -3,3 v 56.7 c 0,1.7 1.3,3 3,3 h 10.7 v 9.6 c 0,1.7 1.3,3 3,3 h 73.3 c 1.7,0 3,-1.3 3,-3 V 31.1 c 0,-1.7 -1.3,-3 -3,-3 z M 8.5,21.4 H 74.7 V 72.1 H 8.5 Z m 81,63.2 H 22.2 V 78 h 55.6 c 1.7,0 3,-1.3 3,-3 0,-0.3 0,-0.5 -0.1,-0.8 V 34.1 h 8.8 c 0,0 0,50.5 0,50.5 z"
           class="st0" />
        <linearGradient
           gradientTransform="matrix(1,0,0,-1,0,104)"
           y2="13.3295"
           x2="50.5"
           y1="94.25"
           x1="50.5"
           gradientUnits="userSpaceOnUse"
           id="linearGradient62">
          <stop
             id="stop58"
             style="stop-color:#00EFD1"
             offset="0" />
          <stop
             id="stop60"
             style="stop-color:#00ACEA"
             offset="1" />
        </linearGradient>
        <path
           inkscape:connector-curvature="0"
           style="fill:url(#SVGID_2_)"
           id="path16"
           d="m 50.5,42.9 c 4.9,0 8.9,-4 8.9,-8.9 0,-4.9 -4,-8.9 -8.9,-8.9 -4.9,0 -8.9,4 -8.9,8.9 0,4.9 4,8.9 8.9,8.9 z m 0,-11.8 c 1.6,0 2.9,1.3 2.9,2.9 0,1.6 -1.3,2.9 -2.9,2.9 -1.6,0 -2.9,-1.3 -2.9,-2.9 0,-1.6 1.3,-2.9 2.9,-2.9 z"
           class="st1" />
        <linearGradient
           gradientTransform="matrix(1,0,0,-1,0,104)"
           y2="13.3295"
           x2="42.6427"
           y1="94.25"
           x1="42.6427"
           gradientUnits="userSpaceOnUse"
           id="linearGradient69">
          <stop
             id="stop65"
             style="stop-color:#00EFD1"
             offset="0" />
          <stop
             id="stop67"
             style="stop-color:#00ACEA"
             offset="1" />
        </linearGradient>
        <path
           inkscape:connector-curvature="0"
           style="fill:url(#SVGID_3_)"
           id="path23"
           d="M 58.6,47.8 C 58,47.1 57.2,46.7 56.3,46.7 v 0 c -0.9,0 -1.8,0.4 -2.3,1.1 L 49,54 37.3,37 c -0.6,-0.8 -1.5,-1.3 -2.5,-1.3 v 0 c -1,0 -1.9,0.5 -2.5,1.3 L 14.8,62.6 c -0.6,0.9 -0.7,2.1 -0.2,3.1 0.5,1 1.5,1.6 2.7,1.6 H 44.6 52.4 68 c 1.2,0 2.2,-0.7 2.7,-1.7 0.5,-1 0.4,-2.3 -0.4,-3.2 z m -14,13.5 H 23 L 34.8,44 46.7,61.3 Z m 9.4,0 -1.4,-2.1 3.8,-4.7 5.4,6.8 z"
           class="st2" />
      </g>
    </g>
  </g>
  <g
     inkscape:groupmode="layer"
     id="layer2"
     inkscape:label="Camada 2"
     transform="translate(-58.700017,-1.0352461)" />
</svg>
