<svg xmlns:dc="http://purl.org/dc/elements/1.1/" xmlns:cc="http://creativecommons.org/ns#" xmlns:rdf="http://www.w3.org/1999/02/22-rdf-syntax-ns#"  xmlns="http://www.w3.org/2000/svg" xmlns:sodipodi="http://sodipodi.sourceforge.net/DTD/sodipodi-0.dtd" xmlns:inkscape="http://www.inkscape.org/namespaces/inkscape" version="1.1" id="Layer_1" x="0px" y="0px" viewBox="0 1.99524 158.019 115.183" xml:space="preserve" width="825.567" height="601.719" sodipodi:docname="noGps.svg" inkscape:version="0.92.3 (2405546, 2018-03-11)" xmlns:xlink="http://www.w3.org/1999/xlink" preserveAspectRatio="xMidYMid meet"><rect id="svgEditorBackground" x="0" y="2" width="158.0189971923828" height="115.1729965209961" style="fill:none;stroke:none;"/><metadata id="metadata25"><rdf:RDF><cc:Work rdf:about=""><dc:format>image/svg+xml</dc:format><dc:type rdf:resource="http://purl.org/dc/dcmitype/StillImage"/><dc:title/></cc:Work></rdf:RDF></metadata><defs id="defs23"/><sodipodi:namedview pagecolor="#ffffff" bordercolor="#666666" borderopacity="1" objecttolerance="10" gridtolerance="10" guidetolerance="10" inkscape:pageopacity="0" inkscape:pageshadow="2" inkscape:window-width="1920" inkscape:window-height="1018" id="namedview21" showgrid="false" inkscape:zoom="0.4609375" inkscape:cx="408.44447" inkscape:cy="394.82949" inkscape:window-x="-8" inkscape:window-y="-8" inkscape:window-maximized="1" inkscape:current-layer="Layer_1"/>
<style type="text/css" id="style2">
	.st0{fill:url(#SVGID_1_);}
	.st1{fill:url(#SVGID_2_);}
</style>
<g id="g18" transform="translate(30.009531,-6.7203125)">
	
		<linearGradient id="SVGID_1_" gradientUnits="userSpaceOnUse" x1="49" y1="95.666702" x2="49" y2="11.666" gradientTransform="matrix(1,0,0,-1,0,104)">
		<stop offset="0" style="stop-color:#00EFD1" id="stop4"/>
		<stop offset="1" style="stop-color:#00ACEA" id="stop6"/>
	</linearGradient>
	<path class="st0" d="m 49,50.7 c 6.7,0 12.1,-5.4 12.1,-12.1 0,-6.7 -5.4,-12.1 -12.1,-12.1 -6.7,0 -12.1,5.4 -12.1,12.1 0,6.7 5.4,12.1 12.1,12.1 z m 0,-18.2 c 3.4,0 6.1,2.7 6.1,6.1 0,3.4 -2.7,6.1 -6.1,6.1 -3.4,0 -6.1,-2.7 -6.1,-6.1 0,-3.4 2.7,-6.1 6.1,-6.1 z" id="path9" inkscape:connector-curvature="0" style="fill:url(#SVGID_1_)"/>
	
		<linearGradient id="SVGID_2_" gradientUnits="userSpaceOnUse" x1="48.999802" y1="95.666702" x2="48.999802" y2="11.666" gradientTransform="matrix(1,0,0,-1,0,104)">
		<stop offset="0" style="stop-color:#00EFD1" id="stop11"/>
		<stop offset="1" style="stop-color:#00ACEA" id="stop13"/>
	</linearGradient>
	<path class="st1" d="m 85.1,91.2 -3,-26.7 C 81.9,63 80.6,61.8 79.1,61.8 H 70.4 C 80.8,50 80.6,31.6 69.6,20.2 64.1,14.6 56.8,11.4 49,11.4 c -7.8,0 -15.1,3.2 -20.6,8.9 -11,11.4 -11.3,29.8 -0.8,41.6 h -8.7 c -1.5,0 -2.8,1.1 -3,2.7 l -3,26.7 c -0.1,0.8 0.2,1.7 0.7,2.3 0.6,0.6 1.4,1 2.2,1 H 82 c 0.9,0 1.7,-0.4 2.2,-1 0.7,-0.7 1,-1.5 0.9,-2.4 z M 32.8,24.5 c 4.4,-4.5 10.1,-7 16.2,-7 6.1,0 11.9,2.5 16.2,7 9.1,9.4 9.1,24.7 0,34.1 L 49,75.5 32.8,58.6 c -9.1,-9.4 -9.1,-24.7 0,-34.1 z M 19.3,88.6 21.6,67.9 H 33.4 L 46.8,82 c 0.6,0.6 1.3,0.9 2.2,0.9 0.9,0 1.6,-0.3 2.2,-0.9 L 64.7,67.9 h 11.8 l 2.3,20.7 c 0,0 -59.5,0 -59.5,0 z" id="path16" inkscape:connector-curvature="0" style="fill:url(#SVGID_2_)"/>
</g>
</svg>