<?xml version="1.0" encoding="UTF-8" standalone="no"?>
<!-- Created with Inkscape (http://www.inkscape.org/) -->

<svg
   xmlns:dc="http://purl.org/dc/elements/1.1/"
   xmlns:cc="http://creativecommons.org/ns#"
   xmlns:rdf="http://www.w3.org/1999/02/22-rdf-syntax-ns#"
   xmlns:svg="http://www.w3.org/2000/svg"
   xmlns="http://www.w3.org/2000/svg"
   xmlns:sodipodi="http://sodipodi.sourceforge.net/DTD/sodipodi-0.dtd"
   xmlns:inkscape="http://www.inkscape.org/namespaces/inkscape"
   width="184.66437mm"
   height="163.31799mm"
   viewBox="0 0 184.66436 163.31799"
   version="1.1"
   id="svg1532"
   inkscape:version="0.92.3 (2405546, 2018-03-11)"
   sodipodi:docname="carregando.svg">
  <defs
     id="defs1526" />
  <sodipodi:namedview
     id="base"
     pagecolor="#ffffff"
     bordercolor="#666666"
     borderopacity="1.0"
     inkscape:pageopacity="0.0"
     inkscape:pageshadow="2"
     inkscape:zoom="0.49497475"
     inkscape:cx="-265.61391"
     inkscape:cy="448.49095"
     inkscape:document-units="mm"
     inkscape:current-layer="text5350"
     showgrid="false"
     inkscape:window-width="1920"
     inkscape:window-height="1018"
     inkscape:window-x="-8"
     inkscape:window-y="-8"
     inkscape:window-maximized="1"
     showguides="true"
     inkscape:guide-bbox="true">
    <sodipodi:guide
       position="71.952875,120.42803"
       orientation="0,1"
       id="guide1544"
       inkscape:locked="false" />
    <sodipodi:guide
       position="71.952875,120.42803"
       orientation="1,0"
       id="guide1551"
       inkscape:locked="false" />
    <sodipodi:guide
       position="109.2407,98.875235"
       orientation="0,1"
       id="guide1553"
       inkscape:locked="false" />
    <sodipodi:guide
       position="109.2407,98.875236"
       orientation="1,0"
       id="guide1555"
       inkscape:locked="false" />
    <sodipodi:guide
       position="71.936156,77.389945"
       orientation="0,1"
       id="guide1557"
       inkscape:locked="false" />
    <sodipodi:guide
       position="71.952875,77.389945"
       orientation="1,0"
       id="guide1559"
       inkscape:locked="false" />
  </sodipodi:namedview>
  <metadata
     id="metadata1529">
    <rdf:RDF>
      <cc:Work
         rdf:about="">
        <dc:format>image/svg+xml</dc:format>
        <dc:type
           rdf:resource="http://purl.org/dc/dcmitype/StillImage" />
        <dc:title></dc:title>
      </cc:Work>
    </rdf:RDF>
  </metadata>

               <style>
                #hex1 {                    
                    animation: fadeHex 0.5s linear infinite alternate;
                    
                }

                #hex2 {                    
                    animation: fadeHex 0.5s linear 0.3s infinite alternate;
                    
                }

                #hex3 {                    
                    animation: fadeHex 0.5s linear 0.5s infinite alternate;
                    
                }

                @keyframes fadeHex{
                    from {
                        opacity: 0;
                    }
                    to {
                        opacity: 1;
                    }
                }

              </style>

  <g
     inkscape:label="Camada 1"
     inkscape:groupmode="layer"
     id="layer1"
     transform="translate(124.22017,-84.189103)">
    <a
       id="hex1"
       transform="translate(1.7518951)"
       inkscape:label="#a5269">
      <path
         inkscape:connector-curvature="0"
         id="path3728"
         d="m -89.486945,127.36762 0.0084,-21.51904 18.478409,-10.829731 18.478406,-10.829746 18.755794,10.844986 18.75581,10.845001 0.0159,11.80893 c 0.009,6.49492 0.01561,16.1143 0.01529,21.37639 l -5.29e-4,9.56744 -18.614009,10.90381 -18.614009,10.90381 -8.939813,-5.17994 c -4.916951,-2.84896 -13.306707,-7.69834 -18.643949,-10.7764 l -9.704073,-5.59646 z"
         style="fill:#2fe69c;fill-opacity:0.59607843;stroke-width:0.53453904" />
    </a>
    <path
       inkscape:connector-curvature="0"
       id="hex3"
       d="m -87.751823,170.40571 0.0084,-21.51904 18.478409,-10.82973 18.478407,-10.82974 18.755797,10.84498 18.75581,10.845 0.0159,11.80893 c 0.009,6.49492 0.01561,16.1143 0.01529,21.37639 l -5.29e-4,9.56744 -18.614009,10.90381 -18.614012,10.90381 -8.939815,-5.17994 c -4.916954,-2.84896 -13.30671,-7.69834 -18.643952,-10.7764 l -9.704069,-5.59646 z"
       style="fill:#2ee6e6;fill-opacity:0.52156863;stroke-width:0.53453904"
       inkscape:label="#path4542" />
    <a
       id="hex2"
       transform="translate(1.7518951)"
       inkscape:label="#a5272">
      <path
         inkscape:connector-curvature="0"
         id="path4544"
         d="m -52.275696,148.59809 0.0084,-21.51904 18.47841,-10.82973 18.478399,-10.82974 18.7558021,10.84498 18.7558039,10.845 0.0159,11.80893 c 0.009,6.49492 0.0156,16.1143 0.0153,21.37639 l -5.3e-4,9.56744 L 3.6177811,180.76613 -14.99623,191.66994 -23.936041,186.49 c -4.9169,-2.84896 -13.30666,-7.69834 -18.643899,-10.7764 l -9.704075,-5.59646 z"
         style="fill:#2fc4e6;fill-opacity:0.59607843;stroke-width:0.53453904" />
    </a>
    <g
       aria-label="carregando"
       style="font-style:normal;font-variant:normal;font-weight:normal;font-stretch:normal;font-size:36.39255905px;line-height:1.25;font-family:'Exo 2';-inkscape-font-specification:'Exo 2, ';letter-spacing:0px;word-spacing:0px;fill:#000000;fill-opacity:1;stroke:none;stroke-width:0.909814"
       id="carregando">
      <path
         d="m -115.7771,221.99591 c -6.15034,0 -8.44307,2.4383 -8.44307,9.2801 0,6.8418 2.29273,9.31649 8.40668,9.31649 2.07437,0 4.29432,-0.29114 6.07756,-0.90981 l -0.32754,-2.07438 c -1.81963,0.29114 -4.14875,0.36393 -5.20413,0.36393 -4.22154,0 -5.67724,-1.4921 -5.67724,-6.69623 0,-5.16775 1.4557,-6.65984 5.67724,-6.65984 1.23734,0 3.20254,0.0728 4.80381,0.21835 l 0.40032,-2.00159 c -1.74684,-0.65506 -4.14875,-0.83702 -5.71363,-0.83702 z"
         style="stroke-width:0.909814"
         id="path5364" />
      <path
         d="m -97.206659,221.99591 c -2.656657,0 -6.113951,0.40031 -8.552251,0.80063 l 0.29114,2.29273 c 2.69305,-0.25475 5.750024,-0.4731 7.606045,-0.4731 2.802227,0 3.602863,0.87342 3.602863,3.05697 v 1.56488 h -7.387688 c -3.09337,0 -4.913,1.60128 -4.913,4.36711 v 1.92881 c 0,3.20254 2.14716,4.94939 5.31332,4.94939 3.275327,0 5.931984,-1.85603 7.314901,-3.27534 l 0.363926,2.9478 h 2.438301 v -12.48265 c 0,-4.29432 -2.147161,-5.67723 -6.077557,-5.67723 z m -3.420901,15.83076 c -1.92881,0 -2.76583,-0.80064 -2.76583,-2.65666 v -1.12817 c 0,-1.49209 0.58228,-2.36551 2.29273,-2.4383 l 6.841798,-0.0364 v 3.60286 c -2.074376,1.81963 -4.621855,2.69305 -6.368698,2.65666 z"
         style="stroke-width:0.909814"
         id="path5366" />
      <path
         d="m -74.503956,221.99591 h -0.800637 c -2.401909,0 -5.022173,1.20095 -7.569652,3.23893 l -0.327533,-2.80222 h -2.401909 v 17.72317 h 3.093368 v -12.99214 c 2.802227,-1.41931 4.621855,-2.25634 6.623445,-2.25634 h 1.018992 z"
         style="stroke-width:0.909814"
         id="path5368" />
      <path
         d="m -59.932717,221.99591 h -0.800636 c -2.401909,0 -5.022173,1.20095 -7.569653,3.23893 l -0.327533,-2.80222 h -2.401908 v 17.72317 h 3.093367 v -12.99214 c 2.802227,-1.41931 4.621855,-2.25634 6.623446,-2.25634 h 1.018991 z"
         style="stroke-width:0.909814"
         id="path5370" />
      <path
         d="m -48.952404,237.97224 c -3.639255,0 -5.276921,-0.94621 -5.568061,-5.16774 h 8.224718 c 2.947798,0 4.25793,-1.85603 4.221537,-5.02218 0,-3.82122 -2.256339,-5.78641 -7.606045,-5.78641 -5.713632,0 -8.151933,2.29273 -8.151933,9.24371 0,6.8054 2.365516,9.35288 8.479466,9.35288 2.037984,0 5.204136,-0.29114 6.878194,-0.9826 l -0.327533,-2.07437 c -1.819628,0.25475 -4.25793,0.43671 -6.150343,0.43671 z m -0.582281,-13.35607 c 3.166153,0 4.330715,0.90981 4.367108,3.16615 0,1.31013 -0.327533,2.62027 -1.928806,2.62027 h -7.496867 c 0.109177,-4.47629 1.382917,-5.78642 5.058565,-5.78642 z"
         style="stroke-width:0.909814"
         id="path5372" />
      <path
         d="m -20.926146,224.14307 0.181963,-1.71045 h -5.604455 c -1.055384,-0.29114 -2.401908,-0.43671 -4.039574,-0.43671 -5.713631,0 -7.606044,1.67405 -7.606044,5.67723 0,2.21995 0.618673,3.74844 2.256338,4.65825 -1.637665,1.16456 -2.001591,4.14875 -0.109177,5.49528 -2.074376,1.09178 -2.911405,2.14716 -2.911405,4.29432 0,4.03957 2.147161,5.3861 8.552251,5.3861 6.332305,0 8.443074,-1.34653 8.443074,-5.49528 0,-2.94779 -1.128169,-4.47628 -4.476285,-4.98578 l -6.623446,-1.05538 c -1.928805,-0.29114 -2.037983,-1.89242 -1.237347,-3.05698 0.982599,0.25475 2.219946,0.36393 3.675649,0.36393 5.677239,0 7.606045,-1.74684 7.606045,-5.64085 0,-1.34652 -0.218356,-2.4383 -0.727851,-3.27533 z m -9.498458,6.76901 c -3.530078,0 -4.731033,-0.9462 -4.731033,-3.27533 0,-2.36551 1.200955,-3.27533 4.731033,-3.27533 3.566471,0 4.731033,0.90982 4.731033,3.27533 0,2.32913 -1.164562,3.27533 -4.731033,3.27533 z m 5.640847,10.95416 c 0,2.4383 -1.164562,3.02058 -5.458884,3.02058 -4.330715,0 -5.495277,-0.50949 -5.495277,-3.02058 0,-1.49209 0.582281,-2.40191 1.856021,-3.38451 l 6.041165,0.83703 c 2.511086,0.40032 3.056975,0.76425 3.056975,2.54748 z"
         style="stroke-width:0.909814"
         id="path5374" />
      <path
         d="m -8.9262694,221.99591 c -2.6566566,0 -6.1139496,0.40031 -8.5522516,0.80063 l 0.291141,2.29273 c 2.693049,-0.25475 5.750024,-0.4731 7.6060445,-0.4731 2.8022271,0 3.6028634,0.87342 3.6028634,3.05697 v 1.56488 h -7.3876899 c -3.093367,0 -4.912995,1.60128 -4.912995,4.36711 v 1.92881 c 0,3.20254 2.147161,4.94939 5.313314,4.94939 3.2753298,0 5.9319866,-1.85603 7.3149039,-3.27534 l 0.3639256,2.9478 h 2.4383014 v -12.48265 c 0,-4.29432 -2.1471609,-5.67723 -6.0775573,-5.67723 z m -3.4209006,15.83076 c -1.928806,0 -2.765834,-0.80064 -2.765834,-2.65666 v -1.12817 c 0,-1.49209 0.58228,-2.36551 2.292731,-2.4383 l 6.8418009,-0.0364 v 3.60286 c -2.0743759,1.81963 -4.6218549,2.69305 -6.3686979,2.65666 z"
         style="stroke-width:0.909814"
         id="path5376" />
      <path
         d="m 13.448898,221.99591 c -2.620264,0 -5.2405281,1.16456 -7.9335774,3.23893 L 5.2969652,222.43262 H 2.676701 v 17.72317 H 5.7700685 V 227.382 c 2.8386196,-1.71045 4.7310325,-2.76583 6.8418015,-2.76583 1.819628,0 2.547479,0.76424 2.547479,3.12976 v 12.40986 h 3.093367 v -13.28328 c 0,-3.20255 -1.674057,-4.8766 -4.803818,-4.8766 z"
         style="stroke-width:0.909814"
         id="path5378" />
      <path
         d="m 38.926525,214.681 h -3.093368 v 5.45888 c 0,1.23735 0.03639,2.32913 0.145571,3.4573 -1.965199,-1.05539 -4.11236,-1.60127 -6.295913,-1.60127 -4.54907,0 -6.696231,2.32912 -6.696231,9.24371 0,6.18673 1.746843,9.35288 6.223128,9.35288 2.729442,0 5.094958,-1.31013 7.023764,-2.98419 l 0.29114,2.54748 h 2.401909 z m -12.773788,16.52222 c 0,-5.24053 1.200954,-6.51427 4.257929,-6.51427 1.856021,0 3.348116,0.40032 5.422491,0.9826 v 9.7896 c -2.401908,1.71045 -3.639255,2.4383 -5.604454,2.4383 -2.875012,0 -4.075966,-1.4557 -4.075966,-6.69623 z"
         style="stroke-width:0.909814"
         id="path5380" />
      <path
         d="m 52.110305,221.99591 c -6.077557,0 -8.333896,2.54747 -8.333896,9.31649 0,6.80541 2.256339,9.3165 8.333896,9.3165 6.11395,0 8.333896,-2.51109 8.333896,-9.3165 0,-6.76902 -2.219946,-9.31649 -8.333896,-9.31649 z m 0,2.62026 c 3.857611,0 5.131351,1.52849 5.131351,6.69623 0,5.16774 -1.27374,6.69623 -5.131351,6.69623 -3.857611,0 -5.094958,-1.52849 -5.094958,-6.69623 0,-5.16774 1.237347,-6.69623 5.094958,-6.69623 z"
         style="stroke-width:0.909814"
         id="path5382" />
    </g>
  </g>
</svg>
